<svg width="1200" height="718" viewBox="0 0 1200 718" fill="none" xmlns="http://www.w3.org/2000/svg">
<g clip-path="url(#clip0_6_25)">
<path d="M337.874 259.96C337.874 274.9 339.867 286.853 341.861 295.817C344.851 304.781 348.837 313.745 354.817 324.701C356.811 327.689 357.807 330.677 357.807 333.665C357.807 337.649 355.814 341.634 349.834 345.618L324.917 362.55C320.93 364.542 317.94 366.534 314.95 366.534C310.964 366.534 306.977 364.542 302.99 360.558C297.01 354.582 293.023 348.606 289.037 341.633C285.05 334.661 281.063 327.689 277.076 317.729C246.179 354.582 207.309 372.51 159.469 372.51C125.581 372.51 99.6679 362.55 79.7343 343.626C59.8008 324.701 49.834 298.805 49.834 266.932C49.834 233.068 61.7941 205.179 85.7144 185.259C109.635 165.339 142.525 154.382 183.389 154.382C197.342 154.382 211.296 155.378 225.249 157.371C240.199 159.363 255.15 162.351 271.096 166.335V137.45C271.096 107.57 265.116 85.6574 252.16 73.7052C239.203 61.753 218.273 55.7769 187.375 55.7769C173.422 55.7769 159.469 57.7689 144.518 60.757C129.568 64.7411 115.615 68.7251 101.661 74.7012C95.6812 76.6932 90.6978 78.6853 87.7077 79.6813C84.7177 79.6813 82.7243 80.6773 81.7277 80.6773C75.7476 80.6773 73.7542 76.6932 73.7542 68.7251V48.8048C73.7542 42.8287 74.7509 37.8486 76.7443 34.8606C78.7376 31.8725 82.7243 28.8845 87.7077 26.8924C101.661 19.9203 118.605 13.9442 137.542 8.96416C157.475 3.98408 177.409 0.996033 199.336 0.996033C247.176 0.996033 281.063 11.9522 303.987 32.8685C325.914 54.7809 336.877 86.6534 336.877 131.474L337.874 259.96ZM176.412 320.717C189.369 320.717 203.322 318.725 217.276 313.745C231.229 308.765 244.186 299.801 255.15 287.849C261.13 279.88 266.113 271.912 269.103 261.952C271.096 251.992 273.09 241.036 273.09 227.092V210.159C261.13 207.171 249.17 205.179 236.213 203.187C223.256 201.195 211.296 201.195 198.339 201.195C171.429 201.195 152.492 206.175 138.538 217.131C125.581 228.088 118.605 243.028 118.605 262.948C118.605 281.873 123.588 295.817 133.555 304.781C143.522 316.733 157.475 320.717 176.412 320.717ZM496.346 364.542C489.369 364.542 484.385 363.546 481.395 360.558C478.405 358.566 475.415 352.59 473.422 344.622L379.734 35.8566C377.741 27.8885 375.748 22.9084 375.748 19.9203C375.748 13.9442 378.738 9.96018 385.714 9.96018H424.585C432.558 9.96018 437.542 10.9562 440.532 13.9442C443.522 15.9363 446.512 21.9124 448.505 29.8805L515.282 293.825L577.076 29.8805C579.07 21.9124 581.063 16.9323 585.05 13.9442C588.04 11.9522 594.02 9.96018 600.997 9.96018H632.89C640.864 9.96018 645.847 10.9562 648.837 13.9442C651.827 15.9363 654.817 21.9124 656.811 29.8805L719.601 296.813L788.372 29.8805C790.365 21.9124 793.356 16.9323 796.346 13.9442C799.336 11.9522 804.319 9.96018 812.292 9.96018H849.169C855.15 9.96018 859.136 12.9482 859.136 19.9203C859.136 21.9124 859.136 23.9044 858.14 25.8964C858.14 27.8885 857.143 31.8725 855.15 35.8566L758.472 344.622C756.478 352.59 753.488 357.57 750.498 360.558C747.508 362.55 742.525 364.542 735.548 364.542H701.661C693.688 364.542 688.704 363.546 685.714 360.558C682.724 357.57 679.734 352.59 677.741 344.622L615.947 87.6494L554.153 344.622C552.16 352.59 550.166 357.57 546.179 360.558C543.189 363.546 537.209 364.542 530.233 364.542H496.346ZM1009.63 374.502C988.704 374.502 967.774 372.51 947.841 367.53C927.907 362.55 911.96 357.57 901.993 351.594C896.013 347.61 891.03 343.626 890.033 340.637C889.037 337.649 887.043 332.669 887.043 329.681V309.761C887.043 301.793 890.033 297.809 896.013 297.809C898.007 297.809 900.997 297.809 902.99 298.805C904.983 299.801 908.97 300.797 912.957 302.789C926.91 308.765 940.864 313.745 956.811 316.733C972.758 319.721 988.704 321.713 1004.65 321.713C1029.57 321.713 1049.5 317.729 1062.46 308.765C1076.41 299.801 1083.39 286.853 1083.39 270.916C1083.39 259.96 1079.4 250.996 1072.43 243.028C1065.45 235.06 1051.5 229.084 1032.56 222.112L974.751 204.183C945.847 195.219 923.92 181.275 910.964 163.347C898.007 145.418 891.03 126.494 891.03 105.578C891.03 88.6454 895.017 73.7052 901.993 61.753C908.97 49.8008 918.937 37.8486 930.897 28.8845C942.857 19.9203 956.811 12.9482 972.758 7.96814C988.704 2.98806 1005.65 0.996033 1022.59 0.996033C1031.56 0.996033 1040.53 0.996033 1049.5 2.98806C1058.47 3.98408 1067.44 5.97611 1075.42 6.97213C1083.39 8.96416 1091.36 10.9562 1098.34 12.9482C1105.32 14.9403 1111.3 17.9283 1115.28 19.9203C1121.26 22.9084 1125.25 25.8964 1127.24 29.8805C1129.24 32.8685 1131.23 37.8486 1131.23 42.8287V61.753C1131.23 69.7211 1128.24 74.7012 1122.26 74.7012C1119.27 74.7012 1114.29 72.7092 1107.31 69.7211C1084.39 59.761 1059.47 53.7849 1030.56 53.7849C1007.64 53.7849 989.701 57.7689 977.741 64.7411C965.781 71.7132 958.804 83.6654 958.804 100.598C958.804 111.554 962.791 121.514 970.764 128.486C978.738 136.454 993.688 143.426 1014.62 150.398L1071.43 168.327C1100.33 177.291 1121.26 190.239 1133.22 206.175C1145.18 222.112 1151.16 241.036 1151.16 261.952C1151.16 278.884 1147.18 294.821 1141.2 307.769C1134.22 321.713 1124.25 333.665 1112.29 342.63C1100.33 352.59 1085.38 359.562 1068.44 364.542C1048.5 372.51 1029.57 374.502 1009.63 374.502Z" fill="#252F3E"/>
<path d="M1085.38 568.725C953.821 665.339 762.458 717.131 599.003 717.131C368.771 717.131 161.462 632.47 4.98337 491.036C-6.97676 480.08 3.98669 465.139 18.9369 473.108C188.372 571.713 396.678 630.478 612.957 630.478C758.472 630.478 918.937 600.598 1066.45 537.849C1087.38 528.884 1106.31 552.789 1085.38 568.725Z" fill="#FF9900"/>
<path d="M1139.2 506.972C1122.26 485.06 1028.57 497.012 985.714 501.992C972.757 503.984 970.764 492.032 982.724 484.064C1057.47 431.275 1181.06 446.215 1195.02 464.143C1208.97 482.072 1191.03 605.578 1121.26 664.343C1110.3 673.307 1100.33 668.327 1105.32 656.375C1121.26 616.534 1156.15 527.889 1139.2 506.972Z" fill="#FF9900"/>
<path d="M337.874 259.96C337.874 274.9 339.867 286.853 341.861 295.817C344.851 304.781 348.837 313.745 354.817 324.701C356.811 327.689 357.807 330.677 357.807 333.665C357.807 337.649 355.814 341.634 349.834 345.618L324.917 362.55C320.93 364.542 317.94 366.534 314.95 366.534C310.964 366.534 306.977 364.542 302.99 360.558C297.01 354.582 293.023 348.606 289.037 341.633C285.05 334.661 281.063 327.689 277.076 317.729C246.179 354.582 207.309 372.51 159.469 372.51C125.581 372.51 99.6679 362.55 79.7343 343.626C59.8008 324.701 49.834 298.805 49.834 266.932C49.834 233.068 61.7941 205.179 85.7144 185.259C109.635 165.339 142.525 154.382 183.389 154.382C197.342 154.382 211.296 155.378 225.249 157.371C240.199 159.363 255.15 162.351 271.096 166.335V137.45C271.096 107.57 265.116 85.6574 252.16 73.7052C239.203 61.753 218.273 55.7769 187.375 55.7769C173.422 55.7769 159.469 57.7689 144.518 60.757C129.568 64.7411 115.615 68.7251 101.661 74.7012C95.6812 76.6932 90.6978 78.6853 87.7077 79.6813C84.7177 79.6813 82.7243 80.6773 81.7277 80.6773C75.7476 80.6773 73.7542 76.6932 73.7542 68.7251V48.8048C73.7542 42.8287 74.7509 37.8486 76.7443 34.8606C78.7376 31.8725 82.7243 28.8845 87.7077 26.8924C101.661 19.9203 118.605 13.9442 137.542 8.96416C157.475 3.98408 177.409 0.996033 199.336 0.996033C247.176 0.996033 281.063 11.9522 303.987 32.8685C325.914 54.7809 336.877 86.6534 336.877 131.474L337.874 259.96ZM176.412 320.717C189.369 320.717 203.322 318.725 217.276 313.745C231.229 308.765 244.186 299.801 255.15 287.849C261.13 279.88 266.113 271.912 269.103 261.952C271.096 251.992 273.09 241.036 273.09 227.092V210.159C261.13 207.171 249.17 205.179 236.213 203.187C223.256 201.195 211.296 201.195 198.339 201.195C171.429 201.195 152.492 206.175 138.538 217.131C125.581 228.088 118.605 243.028 118.605 262.948C118.605 281.873 123.588 295.817 133.555 304.781C143.522 316.733 157.475 320.717 176.412 320.717ZM496.346 364.542C489.369 364.542 484.385 363.546 481.395 360.558C478.405 358.566 475.415 352.59 473.422 344.622L379.734 35.8566C377.741 27.8885 375.748 22.9084 375.748 19.9203C375.748 13.9442 378.738 9.96018 385.714 9.96018H424.585C432.558 9.96018 437.542 10.9562 440.532 13.9442C443.522 15.9363 446.512 21.9124 448.505 29.8805L515.282 293.825L577.076 29.8805C579.07 21.9124 581.063 16.9323 585.05 13.9442C588.04 11.9522 594.02 9.96018 600.997 9.96018H632.89C640.864 9.96018 645.847 10.9562 648.837 13.9442C651.827 15.9363 654.817 21.9124 656.811 29.8805L719.601 296.813L788.372 29.8805C790.365 21.9124 793.356 16.9323 796.346 13.9442C799.336 11.9522 804.319 9.96018 812.292 9.96018H849.169C855.15 9.96018 859.136 12.9482 859.136 19.9203C859.136 21.9124 859.136 23.9044 858.14 25.8964C858.14 27.8885 857.143 31.8725 855.15 35.8566L758.472 344.622C756.478 352.59 753.488 357.57 750.498 360.558C747.508 362.55 742.525 364.542 735.548 364.542H701.661C693.688 364.542 688.704 363.546 685.714 360.558C682.724 357.57 679.734 352.59 677.741 344.622L615.947 87.6494L554.153 344.622C552.16 352.59 550.166 357.57 546.179 360.558C543.189 363.546 537.209 364.542 530.233 364.542H496.346ZM1009.63 374.502C988.704 374.502 967.774 372.51 947.841 367.53C927.907 362.55 911.96 357.57 901.993 351.594C896.013 347.61 891.03 343.626 890.033 340.637C889.037 337.649 887.043 332.669 887.043 329.681V309.761C887.043 301.793 890.033 297.809 896.013 297.809C898.007 297.809 900.997 297.809 902.99 298.805C904.983 299.801 908.97 300.797 912.957 302.789C926.91 308.765 940.864 313.745 956.811 316.733C972.758 319.721 988.704 321.713 1004.65 321.713C1029.57 321.713 1049.5 317.729 1062.46 308.765C1076.41 299.801 1083.39 286.853 1083.39 270.916C1083.39 259.96 1079.4 250.996 1072.43 243.028C1065.45 235.06 1051.5 229.084 1032.56 222.112L974.751 204.183C945.847 195.219 923.92 181.275 910.964 163.347C898.007 145.418 891.03 126.494 891.03 105.578C891.03 88.6454 895.017 73.7052 901.993 61.753C908.97 49.8008 918.937 37.8486 930.897 28.8845C942.857 19.9203 956.811 12.9482 972.758 7.96814C988.704 2.98806 1005.65 0.996033 1022.59 0.996033C1031.56 0.996033 1040.53 0.996033 1049.5 2.98806C1058.47 3.98408 1067.44 5.97611 1075.42 6.97213C1083.39 8.96416 1091.36 10.9562 1098.34 12.9482C1105.32 14.9403 1111.3 17.9283 1115.28 19.9203C1121.26 22.9084 1125.25 25.8964 1127.24 29.8805C1129.24 32.8685 1131.23 37.8486 1131.23 42.8287V61.753C1131.23 69.7211 1128.24 74.7012 1122.26 74.7012C1119.27 74.7012 1114.29 72.7092 1107.31 69.7211C1084.39 59.761 1059.47 53.7849 1030.56 53.7849C1007.64 53.7849 989.701 57.7689 977.741 64.7411C965.781 71.7132 958.804 83.6654 958.804 100.598C958.804 111.554 962.791 121.514 970.764 128.486C978.738 136.454 993.688 143.426 1014.62 150.398L1071.43 168.327C1100.33 177.291 1121.26 190.239 1133.22 206.175C1145.18 222.112 1151.16 241.036 1151.16 261.952C1151.16 278.884 1147.18 294.821 1141.2 307.769C1134.22 321.713 1124.25 333.665 1112.29 342.63C1100.33 352.59 1085.38 359.562 1068.44 364.542C1048.5 372.51 1029.57 374.502 1009.63 374.502Z" fill="#252F3E"/>
<path d="M1085.38 568.725C953.821 665.339 762.458 717.131 599.003 717.131C368.771 717.131 161.462 632.47 4.98337 491.036C-6.97676 480.08 3.98669 465.139 18.9369 473.108C188.372 571.713 396.678 630.478 612.957 630.478C758.472 630.478 918.937 600.598 1066.45 537.849C1087.38 528.884 1106.31 552.789 1085.38 568.725Z" fill="#FF9900"/>
<path d="M1139.2 506.972C1122.26 485.06 1028.57 497.012 985.714 501.992C972.757 503.984 970.764 492.032 982.724 484.064C1057.47 431.275 1181.06 446.215 1195.02 464.143C1208.97 482.072 1191.03 605.578 1121.26 664.343C1110.3 673.307 1100.33 668.327 1105.32 656.375C1121.26 616.534 1156.15 527.889 1139.2 506.972Z" fill="#FF9900"/>
</g>
<defs>
<clipPath id="clip0_6_25">
<rect width="1200" height="717.131" fill="white"/>
</clipPath>
</defs>
</svg>
