<?xml version="1.0" encoding="UTF-8"?>
<svg id="Capa_2" data-name="Capa 2" xmlns="http://www.w3.org/2000/svg" viewBox="0 0 245.05 348.05">
  <defs>
    <style>
      .cls-1 {
        fill: #0b996e;
      }
    </style>
  </defs>
  <g id="Capa_1-2" data-name="Capa 1">
    <path class="cls-1" d="M47.33,173.77V45.27h77.83c26.29,0,43.65,15.27,43.65,38.43,0,26.32-22.61,46.33-68.88,61.6-31.55,9.99-45.74,18.42-51.01,28.44l-1.59.02ZM47.33,302.78v-53.7c0-23.69,19.99-46.86,47.86-55.82,24.72-8.43,45.22-16.86,62.58-25.79,23.14,13.7,37.33,37.38,37.33,62.13,0,42.12-39.97,73.18-94.13,73.18h-53.63ZM0,348.05h105.17c79.94,0,139.88-50.02,139.88-116.36,0-36.34-18.4-68.97-51.01-90.04,16.83-16.86,24.72-36.34,24.72-60.03C218.76,32.65,183.53,0,130.43,0H0v348.05Z"/>
  </g>
</svg>