<svg width="1200" height="248" viewBox="0 0 1200 248" fill="none" xmlns="http://www.w3.org/2000/svg">
<g clip-path="url(#clip0_6_16)">
<path d="M121.519 248C162.025 248 192.405 232.218 209.845 210.8L176.09 181.491C162.588 196.709 145.71 204.036 122.644 204.036C76.5119 204.036 48.3826 169.091 48.3826 126.818C48.3826 84.5455 76.512 48.4727 121.519 48.4727C142.335 48.4727 159.775 55.8 173.84 70.4545L207.032 41.7091C185.654 17.4727 159.775 5.63636 121.519 5.63636C49.5077 5.63636 0 60.3091 0 127.382C0 193.891 52.3207 248 121.519 248ZM294.796 248C325.738 248 341.491 235.036 350.492 215.309V243.491H394.374V69.8909H349.93V97.5091C340.366 78.9091 325.176 66.5091 294.796 66.5091C246.976 66.5091 209.283 107.655 209.283 157.818C209.283 207.982 246.976 248 294.796 248ZM254.29 157.255C254.29 130.2 273.418 107.091 302.11 107.091C331.927 107.091 350.492 130.2 350.492 157.255C350.492 184.309 331.364 206.855 302.11 206.855C273.418 207.418 254.29 183.745 254.29 157.255ZM421.378 243.491H466.385V0H421.378V243.491ZM516.456 248C533.896 248 546.273 234.473 546.273 218.691C546.273 202.909 533.896 189.382 516.456 189.382C499.015 189.382 486.639 202.909 486.639 218.691C486.639 234.473 499.578 248 516.456 248ZM643.038 248C676.793 248 700.984 235.6 717.3 214.745L684.669 186.564C675.668 198.4 664.416 207.418 646.976 207.418C618.284 207.418 598.594 184.309 598.594 157.255C598.594 130.2 617.159 107.091 645.851 107.091C661.041 107.091 674.543 114.982 682.419 126.818L717.3 98.6364C702.672 78.3455 676.793 65.9455 645.288 66.5091C592.405 67.0727 553.586 107.091 553.586 157.818C553.586 208.545 593.53 248 643.038 248ZM809.564 248C863.01 248 901.828 207.418 901.828 157.255C901.828 107.091 863.01 65.9455 809.564 65.9455C756.118 65.9455 717.3 107.091 717.3 157.255C717.3 207.418 756.118 248 809.564 248ZM762.307 157.255C762.307 130.2 780.872 107.091 809.564 107.091C838.256 107.091 856.821 130.2 856.821 157.255C856.821 184.309 838.256 206.855 809.564 206.855C780.872 206.855 762.307 184.309 762.307 157.255ZM922.082 243.491H967.089V148.8C967.089 118.927 983.966 105.964 1003.09 105.964C1025.6 105.964 1040.22 118.927 1040.22 148.8V244.055H1085.23V148.8C1085.23 115.545 1099.3 105.964 1120.68 105.964C1140.93 105.964 1155.56 118.927 1155.56 148.8V244.055H1200.56V137.527C1200.56 93.5636 1171.87 65.9455 1134.74 65.9455C1104.36 65.9455 1087.48 77.7818 1076.23 98.6364C1064.98 77.7818 1044.16 65.9455 1019.97 65.9455C993.53 65.9455 976.09 76.0909 967.089 95.2545V69.8909H922.644V243.491H922.082Z" fill="#141414"/>
</g>
<defs>
<clipPath id="clip0_6_16">
<rect width="1200" height="248" fill="white"/>
</clipPath>
</defs>
</svg>
