<?xml version="1.0" encoding="UTF-8"?>
<svg id="Capa_2" data-name="Capa 2" xmlns="http://www.w3.org/2000/svg" viewBox="0 0 2494 2432.44">
  <defs>
    <style>
      .cls-1 {
        fill: #5c6bc0;
      }
    </style>
  </defs>
  <g id="Capa_1-2" data-name="Capa 1">
    <path class="cls-1" d="M1247.05,0C558.43,0,0,558.23,0,1246.95c0,551.02,357.33,1018.41,852.77,1183.26,62.29,11.52,85.23-27.04,85.23-59.99,0-29.74-1.2-127.99-1.7-232.14-346.91,75.41-420.12-147.12-420.12-147.12-56.68-144.11-138.51-182.47-138.51-182.47-113.17-77.41,8.51-75.81,8.51-75.81,125.19,8.81,191.18,128.49,191.18,128.49,111.27,190.68,291.73,135.5,362.84,103.65,11.22-80.62,43.46-135.6,79.22-166.75-277.01-31.55-568.14-138.51-568.14-616.31,0-136.1,48.67-247.37,128.49-334.7-12.92-31.35-55.58-158.13,12.12-329.89,0,0,104.76-33.55,343.01,127.79,99.45-27.64,206.11-41.46,312.16-41.96,105.96.5,212.72,14.32,312.36,41.96,238.05-161.34,342.61-127.79,342.61-127.79,67.9,171.75,25.14,298.64,12.22,329.99,79.92,87.33,128.29,198.59,128.29,334.7,0,478.91-291.73,584.47-569.44,615.31,44.77,38.66,84.63,114.57,84.63,230.94,0,166.85-1.4,301.15-1.4,342.21,0,33.15,22.43,72.11,85.63,59.79,495.23-165.04,852.06-632.34,852.06-1183.16C2494,558.23,1935.67,0,1247.05,0"/>
  </g>
</svg>