<?xml version="1.0" encoding="UTF-8"?>
<svg id="Capa_2" data-name="Capa 2" xmlns="http://www.w3.org/2000/svg" viewBox="0 0 1175 1205.42">
  <defs>
    <style>
      .cls-1 {
        fill: #f36;
      }
    </style>
  </defs>
  <g id="Capa_1-2" data-name="Capa 1">
    <path class="cls-1" d="M232.29,103.29v1072.92c0,11.46-5.21,16.67-14.58,16.67H13.54c-9.38,0-13.54-5.21-13.54-16.67V103.29c0-9.38,5.21-13.54,14.58-13.54h203.13c6.25-1.04,12.5,3.12,13.54,10.42,1.04,1.04,1.04,2.08,1.04,3.12h0ZM834.38,1205.37c-77.08,1.04-154.17-14.58-223.96-46.88-65.63-30.21-119.79-80.21-157.29-141.67-38.54-63.54-57.29-142.71-57.29-237.5-1.04-77.08,18.75-153.12,57.29-219.79,39.58-67.71,96.88-123.96,165.63-161.46,72.92-40.63,160.42-60.42,263.54-60.42,5.21,0,12.5,0,21.88,1.04s19.79,1.04,32.29,2.08V11.62c0-7.29,3.13-11.46,10.42-11.46h211.46c5.21-1.04,9.37,3.12,10.42,7.29v993.75c0,18.75,1.04,39.58,2.08,62.5,2.08,21.88,3.13,42.71,4.17,60.42,0,7.29-3.13,13.54-10.42,16.67-54.17,22.92-111.46,39.58-169.79,50-52.08,9.37-106.25,14.58-160.42,14.58h0ZM936.46,997.04v-458.33c-9.37-2.08-18.75-4.17-28.12-5.21-11.46-1.04-22.92-2.08-34.38-2.08-40.62,0-81.25,8.33-117.71,27.08-35.42,17.71-65.63,43.75-88.54,77.08s-34.38,78.13-34.38,132.29c-1.04,36.46,5.21,72.92,17.71,107.29,10.42,28.12,26.04,53.13,46.88,73.96,19.79,18.75,43.75,33.33,70.83,41.67,28.12,9.37,57.29,13.54,86.46,13.54,15.63,0,30.21-1.04,43.75-2.08,13.54,1.04,26.04-1.04,37.5-5.21h0Z"/>
  </g>
</svg>