<svg width="1200" height="1200" viewBox="0 0 1200 1200" fill="none" xmlns="http://www.w3.org/2000/svg">
<g clip-path="url(#clip0_6_23)">
<path d="M14.7049 738.273C12.0349 726.891 25.5947 719.722 33.8615 727.989L472.01 1166.14C480.277 1174.4 473.108 1187.96 461.726 1185.29C240.618 1133.43 66.5735 959.382 14.7049 738.273ZM0.0226962 562.669C-0.189029 566.069 1.08916 569.388 3.49756 571.796L628.204 1196.5C630.612 1198.91 633.931 1200.19 637.331 1199.98C665.761 1198.21 693.656 1194.46 720.88 1188.87C730.054 1186.98 733.241 1175.71 726.618 1169.09L30.9114 473.382C24.2891 466.759 13.0174 469.946 11.1333 479.12C5.54233 506.343 1.79347 534.239 0.0226962 562.669ZM50.5312 356.465C48.5333 360.95 49.5509 366.192 53.023 369.665L830.335 1146.98C833.808 1150.45 839.05 1151.47 843.535 1149.47C864.968 1139.92 885.74 1129.16 905.761 1117.26C912.386 1113.32 913.409 1104.22 907.96 1098.77L101.228 292.04C95.7788 286.591 86.6754 287.613 82.739 294.239C70.8432 314.259 60.0779 335.031 50.5312 356.465ZM151.904 216.888C147.463 212.447 147.188 205.324 151.373 200.639C261.354 77.5117 421.337 0 599.423 0C931.112 0 1200 268.887 1200 600.577C1200 778.663 1122.49 938.646 999.361 1048.63C994.678 1052.81 987.553 1052.54 983.111 1048.1L151.904 216.888Z" fill="#222326"/>
</g>
<defs>
<clipPath id="clip0_6_23">
<rect width="1200" height="1200" fill="white"/>
</clipPath>
</defs>
</svg>
