<?xml version="1.0" encoding="UTF-8"?>
<svg id="Capa_2" data-name="Capa 2" xmlns="http://www.w3.org/2000/svg" viewBox="0 0 148.98 24.81">
  <defs>
    <style>
      .cls-1 {
        fill-rule: evenodd;
      }
    </style>
  </defs>
  <g id="Capa_1-2" data-name="Capa 1" data-v-d851fe12="">
    <path class="cls-1" d="M148.98,2.79c0,1.64-1.27,2.84-2.82,2.84s-2.8-1.18-2.8-2.81,1.28-2.81,2.82-2.81,2.8,1.16,2.8,2.79ZM148.46,2.81c0-1.34-1.05-2.31-2.29-2.31s-2.31.97-2.31,2.32,1.05,2.31,2.29,2.31,2.31-.97,2.31-2.32ZM146.8,2.91l.78,1.32h-.62l-.65-1.27h-.77v1.27h-.52V1.28h1.49c.56,0,.96.34.96.8,0,.4-.26.71-.66.82h0ZM145.54,2.5h.92c.29,0,.5-.16.5-.4,0-.21-.18-.36-.46-.36h-.97v.76h0ZM10.52,15.37c5.1,0,8.4-3.28,8.4-7.61,0-4.34-3.31-7.51-8.4-7.51H0v24.12h5.41v-8.99h5.11ZM9.69,4.31c2.48,0,3.92,1.58,3.93,3.44,0,1.93-1.45,3.55-3.93,3.55h-4.29v-6.99h4.29ZM41.48,24.81c5.58,0,9.13-3.75,9.13-9.23s-3.58-9.16-9.13-9.16-9.1,3.69-9.1,9.16,3.52,9.23,9.1,9.23ZM41.48,20.92c-2.75,0-4.34-2.24-4.34-5.34s1.55-5.27,4.34-5.27,4.38,2.17,4.38,5.27-1.62,5.34-4.38,5.34ZM60.98,24.74c-5.17,0-8.36-3.82-8.36-8.99s3.2-8.99,8.37-8.99c4.44,0,7.23,2.69,7.82,6.34h-2.89c-.49-2.24-2.03-3.93-4.93-3.93-3.55,0-5.61,2.79-5.61,6.58s2.07,6.58,5.61,6.58c3.06,0,4.68-1.86,5.1-4.34h2.82c-.45,3.89-3.27,6.75-7.92,6.75ZM89.71,6.75c-4.99,0-8.37,3.79-8.37,9.1h0c0,5.11,3.14,8.9,8.3,8.9,3.89,0,6.78-2.21,7.75-5.89h-3.14c-.83,2.47-2.75,3.48-4.68,3.48-3,0-5.07-2.38-5.27-5.86v-.14h13.23v-.59c0-5.17-2.83-8.99-7.82-8.99ZM89.68,9.16c3.13,0,4.93,2.14,4.99,5.03h-10.3c.52-3.1,2.34-5.03,5.3-5.03ZM114.18,13.13v11.23h-2.75v-2.72h-.07c-.82,1.31-2.93,2.89-6.06,2.89-3.37,0-5.61-1.89-5.61-4.93,0-3.27,2.45-5.72,9.37-5.72h2.38v-.76c0-2.45-1.55-3.96-4.07-3.96-2.38,0-3.96,1.31-4.1,3.41h-2.82c.1-3.58,2.75-5.82,6.92-5.82s6.82,2.45,6.82,6.37h-.01ZM111.43,17.71v-1.62h-2.38c-5.1,0-6.61,1.52-6.61,3.45,0,1.72,1.34,2.72,3.48,2.72,3.03,0,5.51-2.17,5.51-4.54h0ZM137.27,6.75c-4.99,0-8.37,3.79-8.37,9.1h0c0,5.11,3.14,8.9,8.3,8.9,3.89,0,6.78-2.21,7.75-5.89h-3.14c-.82,2.47-2.75,3.48-4.68,3.48-3,0-5.07-2.38-5.27-5.86v-.14h13.23v-.59c0-5.17-2.83-8.99-7.82-8.99ZM137.24,9.16c3.13,0,4.93,2.14,4.99,5.03h-10.3c.51-3.1,2.34-5.03,5.3-5.03ZM80.91,7.07c-3.01.28-5.32,1.54-6.52,4.27v-4.2h-2.82v17.22h2.82v-7.4c0-4.73,2.17-6.86,6.52-6.82v-3.07ZM25.49,11.27c.99-2.89,3.08-4.23,6.17-4.52h0v4.88c-4.55-.13-6.17,1.9-6.17,6.14v6.58h-4.85V6.86h4.85v4.41ZM128.28,9.55h0s0,0,0,0h0ZM128.28,7.14v2.4h-6.3v9.13c0,2.24,1.2,3.45,3.48,3.45.68,0,1.46-.09,2.3-.38v2.5c-.69.23-1.46.35-2.3.35-3.86,0-6.31-2.27-6.31-5.92v-9.13h-3.62v-2.4h2.52c.6,0,1.1-.49,1.1-1.1V1.63h2.82v5.52h6.31Z"/>
  </g>
</svg>