<?xml version="1.0" encoding="UTF-8"?>
<svg id="Capa_2" data-name="Capa 2" xmlns="http://www.w3.org/2000/svg" viewBox="0 0 2447.6 2452.5">
  <defs>
    <style>
      .cls-1 {
        fill: #ecb22e;
      }

      .cls-1, .cls-2, .cls-3, .cls-4 {
        fill-rule: evenodd;
      }

      .cls-2 {
        fill: #e01e5a;
      }

      .cls-3 {
        fill: #36c5f0;
      }

      .cls-4 {
        fill: #2eb67d;
      }
    </style>
  </defs>
  <g id="Capa_1-2" data-name="Capa 1">
    <g>
      <path class="cls-3" d="M897.4,0c-135.3.1-244.8,109.9-244.7,245.2-.1,135.3,109.5,245.1,244.8,245.2h244.8v-245.1c.1-135.3-109.5-245.1-244.9-245.3q.1,0,0,0M897.4,654H244.8C109.5,654.1-.1,763.9,0,899.2c-.2,135.3,109.4,245.1,244.7,245.3h652.7c135.3-.1,244.9-109.9,244.8-245.2.1-135.4-109.5-245.2-244.8-245.3h0Z"/>
      <path class="cls-4" d="M2447.6,899.2c.1-135.3-109.5-245.1-244.8-245.2-135.3.1-244.9,109.9-244.8,245.2v245.3h244.8c135.3-.1,244.9-109.9,244.8-245.3ZM1794.9,899.2V245.2C1795,110,1685.5.2,1550.2,0c-135.3.1-244.9,109.9-244.8,245.2v654c-.2,135.3,109.4,245.1,244.7,245.3,135.3-.1,244.9-109.9,244.8-245.3Z"/>
      <path class="cls-1" d="M1550.1,2452.5c135.3-.1,244.9-109.9,244.8-245.2.1-135.3-109.5-245.1-244.8-245.2h-244.8v245.2c-.1,135.2,109.5,245,244.8,245.2ZM1550.1,1798.4h652.7c135.3-.1,244.9-109.9,244.8-245.2.2-135.3-109.4-245.1-244.7-245.3h-652.7c-135.3.1-244.9,109.9-244.8,245.2-.1,135.4,109.4,245.2,244.7,245.3h0Z"/>
      <path class="cls-2" d="M0,1553.2c-.1,135.3,109.5,245.1,244.8,245.2,135.3-.1,244.9-109.9,244.8-245.2v-245.2h-244.8C109.5,1308.1-.1,1417.9,0,1553.2ZM652.7,1553.2v654c-.2,135.3,109.4,245.1,244.7,245.3,135.3-.1,244.9-109.9,244.8-245.2v-653.9c.2-135.3-109.4-245.1-244.7-245.3-135.4,0-244.9,109.8-244.8,245.1,0,0,0,.1,0,0"/>
    </g>
  </g>
</svg>