<svg xmlns="http://www.w3.org/2000/svg" xml:space="preserve" id="Capa_1" x="0" y="0" viewBox="0 0 800 269.644"><style>.st1{fill:#6d2077}.st2{fill:#d00070}</style><g><path d="M48.713 227.897c2.393 0 4.335-1.952 4.335-4.36s-1.942-4.364-4.335-4.364c-2.386 0-4.328 1.956-4.328 4.364s1.942 4.36 4.328 4.36" style="fill:#009cdd"/><path d="M383.954 262.073c2.394 0 4.335-1.952 4.335-4.358 0-2.41-1.941-4.366-4.335-4.366-2.388 0-4.326 1.956-4.326 4.366 0 2.406 1.938 4.358 4.326 4.358" class="st1"/><path d="m178.882 235.651-.001-.015c-.01-4.86-1.698-8.961-4.761-11.731l-.216-.193-.049-.045h-.01c-2.882-2.474-6.784-3.78-11.412-3.823a1.001 1.001 0 0 0-.23.002l-.033-.002c-.139 0-.233.003-.3.006a4 4 0 0 0-.243-.006l-.07.001a1 1 0 0 0-.136-.006h-.04q-.038-.001-.09.005c-4.617.05-8.505 1.35-11.378 3.823h-.014l-.263.238c-3.052 2.758-4.739 6.84-4.76 11.675l-.002.005-.005.02-.024 25.031c0 .334.142.663.392.896.25.238.6.375.95.375h4.456c.35 0 .696-.137.948-.375.253-.233.392-.562.392-.896l.01-24.187c.028-3.544.934-6.056 2.57-7.715 1.585-1.608 4.004-2.516 7.334-2.58 3.297.064 5.712.972 7.297 2.58 1.635 1.66 2.541 4.171 2.57 7.722l-.007 24.18c0 .334.143.663.393.896.25.238.599.375.95.375h4.462c.351 0 .697-.137.949-.375.255-.233.394-.562.394-.896zM334.224 235.651v-.015c-.011-4.86-1.698-8.961-4.762-11.731l-.215-.193-.05-.045h-.01c-2.881-2.474-6.784-3.78-11.411-3.823a.995.995 0 0 0-.23.002l-.033-.002c-.14 0-.233.003-.301.006a4 4 0 0 0-.243-.006l-.07.001a1 1 0 0 0-.135-.006h-.041q-.037-.001-.09.005c-4.616.05-8.504 1.35-11.378 3.823h-.014l-.263.238c-3.051 2.758-4.738 6.84-4.76 11.675l-.002.005-.005.02-.024 25.031c0 .334.143.663.392.896.25.238.6.375.95.375h4.456a1.4 1.4 0 0 0 .949-.375c.253-.233.392-.562.392-.896l.01-24.187c.027-3.544.933-6.056 2.57-7.715 1.585-1.608 4.003-2.516 7.333-2.58 3.298.064 5.713.972 7.298 2.58 1.634 1.66 2.54 4.171 2.57 7.722l-.007 24.18c0 .334.142.663.392.896.251.238.599.375.95.375h4.462c.351 0 .698-.137.95-.375.253-.233.392-.562.392-.896zM250.928 240.988v.191c-.01 3.986-.435 7.881-1.95 10.67-1.49 2.681-3.887 4.472-8.54 4.543a1 1 0 0 0-.174 0h-.078c-4.684-.047-7.113-1.841-8.61-4.548-1.529-2.799-1.957-6.726-1.957-10.739v-.24c.004-3.986.428-7.184 1.957-9.97 1.497-2.707 3.926-4.504 8.61-4.547h.18c4.688.043 7.108 1.836 8.617 4.552 1.52 2.781 1.945 5.98 1.945 9.964zm1.318-16.875q-.033-.043-.079-.087c-2.538-2.34-6.596-3.79-11.296-3.795-.064-.008-.162-.008-.254-.008-3.866-.002-7.68.806-10.994 3.644l-.004.002v-2.49h.007v-12.614c0-.333-.143-.66-.392-.893a1.4 1.4 0 0 0-.95-.373h-4.39c-.35 0-.697.137-.95.373-.253.233-.391.56-.391.893v12.613h.003v26.78h-.003v12.545c0 .333.143.66.392.891.25.238.598.373.951.373h4.39c.35 0 .697-.135.948-.373.255-.23.394-.558.394-.891v-2.594c2.93 3.276 7.134 4.405 10.99 4.403h.271c4.69-.015 8.75-1.464 11.278-3.802 4.73-4.477 5.811-11.34 5.826-17.72-.013-6.346-1.096-12.417-5.747-16.877M132.509 246.7c-.01 3.348-.743 5.198-1.728 6.06-2.374 2.191-5.314 2.52-8.895 2.528h-.105c-3.449.004-5.714-.594-7-1.525-1.22-.882-1.85-2.143-1.88-4.314v-.098c.024-2.154.678-3.498 1.912-4.445 1.291-.983 3.465-1.621 6.72-1.621h10.976zm7.371-12.904v-.03c.002-4.244-1.41-7.883-4.37-10.314-2.982-2.45-7.261-3.6-12.77-3.602h-.274c-5.783-.017-10.378 1.242-13.876 4.964l-.013-.013-.2.239c-.264.292-.521.592-.77.913l-.008.01-.358.424c-.214.254-.319.595-.275.937.037.346.212.678.479.906l.202.176q.116.14.258.26l.782.64 2.081 1.801c.266.233.618.357.959.34.338-.014.656-.168.869-.423l1.337-1.587h-.002c.832-.904 1.69-1.546 2.723-1.997 1.46-.642 3.333-.94 6.039-.966h.032l.092-.005c3.848.01 6.244.792 7.615 1.996 1.368 1.184 2.062 2.973 2.072 5.755 0 .019 0 .068.005.13v2.625H121.08c-4.611.01-8.467 1.052-11.25 3.223-2.765 2.123-4.307 5.392-4.308 9.198l.001.144c.007 3.173 1.199 6.284 3.364 8.445 2.926 2.883 6.823 3.93 12.71 3.93h3.051c5.392.006 9.26-1.327 11.751-4.014 2.487-2.687 3.483-6.572 3.483-11.404V233.87zM268.292 249.497v-.098c.022-2.15.677-3.494 1.91-4.44 1.292-.984 3.467-1.62 6.722-1.62H287.9v3.41c-.01 3.347-.744 5.196-1.728 6.06-2.375 2.187-5.314 2.517-8.897 2.525h-.103c-3.45.003-5.715-.594-7-1.525-1.221-.882-1.85-2.14-1.88-4.312m26.979-15.643v-.029c.001-4.242-1.41-7.878-4.372-10.309-2.979-2.447-7.26-3.597-12.766-3.6h-.276c-5.785-.014-10.378 1.243-13.875 4.962l-.014-.012-.2.24q-.396.433-.773.91l-.005.011-.358.424c-.214.253-.32.594-.275.937.038.345.212.676.478.906l.202.175q.117.139.258.258l.782.642 2.082 1.799c.266.23.617.356.957.34s.656-.169.87-.423l1.336-1.586v-.001c.833-.903 1.689-1.545 2.723-1.997 1.46-.64 3.333-.94 6.038-.964h.032l.092-.004c3.85.008 6.244.792 7.615 1.994 1.369 1.183 2.06 2.972 2.073 5.752 0 .018 0 .067.005.13v2.623H276.47c-4.612.01-8.468 1.05-11.251 3.221-2.765 2.122-4.306 5.389-4.308 9.194l.002.144c.007 3.17 1.198 6.278 3.364 8.436 2.926 2.882 6.823 3.93 12.71 3.93h3.051c5.392.005 9.259-1.328 11.75-4.013 2.487-2.683 3.483-6.566 3.483-11.395v-12.622zM71.213 219.997h-7.529l-.003-7.631h-.003l-.002-3.693c0-.662-.58-1.204-1.297-1.204h-4.526c-.341 0-.677.128-.915.352a1.18 1.18 0 0 0-.385.852v6.804h.003v35.77c.004 2.906.84 5.521 2.68 7.504 1.753 1.917 4.594 3.114 7.877 3.114h2.192v-.027h1.908c.331 0 .655-.145.887-.395.235-.252.37-.601.37-.958v-4.42c0-.354-.135-.704-.37-.956a1.2 1.2 0 0 0-.887-.396h-3.5c-.707-.027-1.276-.113-1.771-.288a3 3 0 0 1-.693-.347c-.2-.14-.31-.209-.507-.414-.674-.704-1.047-1.82-1.058-3.481v-23.06h7.529c.331 0 .655-.144.887-.395.235-.253.37-.603.37-.957v-4.423c0-.353-.135-.702-.37-.956a1.2 1.2 0 0 0-.887-.395M103.676 225.22l-.417-.465a.4.4 0 0 0-.099-.158l-.252-.26-.347-.359-.285-.317-.012.012c-2.56-2.696-5.748-3.83-9.143-3.834l-.266.003c-2.41 0-5.255 1.083-6.962 3.138l-1.176 1.397v-3.123c0-.333-.143-.66-.392-.891a1.4 1.4 0 0 0-.953-.373h-4.387c-.353 0-.7.135-.95.373-.253.23-.392.558-.392.891v39.401c0 .334.142.66.392.892.25.238.597.374.95.374h.757c.024.002.05.007.073.007h2.765c.026 0 .05-.005.075-.007h.72c.35 0 .697-.136.95-.374.252-.232.392-.558.392-.892v-.683l.001-.025v-23.375l-.001-.09v-1.893c.132-2.172.821-4.13 1.952-5.55 1.211-1.517 2.987-2.502 5.381-2.508 1.268 0 2.101.15 2.823.451.696.304 1.405.823 2.337 1.784l.21.217.954 1.063c.225.251.552.398.897.401.345.008.697-.128.962-.37l3.289-2.993c.263-.24.43-.577.46-.928a1.23 1.23 0 0 0-.306-.936M214.259 240.367c-.018-.014-.038-.023-.053-.036h-.005c-2.563-1.788-5.808-2.411-9.303-2.71l-6.55-.552c-2.726-.228-4.415-.795-5.396-1.566-.832-.635-1.348-1.658-1.363-3.231v-.036h-.005l.005-.082c.015-1.861.738-3.214 2.023-4.132 1.37-.988 3.566-1.618 6.672-1.621h.03c3.963.007 7.24.931 9.975 2.688l-.004.005 1.662 1.166c.265.187.604.256.93.18.331-.07.632-.276.828-.561l2.447-3.568c.198-.287.283-.647.235-.981a1.2 1.2 0 0 0-.199-.51 1.26 1.26 0 0 0-.388-.45l-.282-.2c-3.906-2.785-9.352-4.346-15.222-4.354-4.701.001-8.712 1.131-11.623 3.296-2.887 2.128-4.584 5.346-4.586 9.009l.002.05v.025l-.002.098c0 3.238 1.2 6.1 3.597 8.05 2.42 1.98 5.828 3.036 10.12 3.382l6.733.544c2.468.227 4.01.774 4.918 1.535.793.643 1.299 1.663 1.304 3.29v.101c-.019 2.05-.844 3.464-2.385 4.445-1.653 1.049-4.341 1.69-8.078 1.69h-.026l-.07.006h-.034c-4.93-.024-8.435-1.133-11.162-3.386l-1.42-1.202a1.2 1.2 0 0 0-.934-.272 1.4 1.4 0 0 0-.893.498l-2.819 3.408a1.42 1.42 0 0 0-.326.977c.016.344.173.666.428.88l1.338 1.131-.006.008c.027.02.055.036.08.057l.175.146.012-.013c4.14 2.997 9.305 4.43 15.631 4.43h.112c5.216-.004 9.616-1.135 12.827-3.351 3.174-2.186 5.067-5.56 5.062-9.452v-.194c.006-3.923-1.514-6.881-4.012-8.635M375.873 260.157l-5.493-7.751-11.004-16.07 8.552-9.083 4.98-5.263.302-.336c.575-.579.294-1.18.044-1.412a1.4 1.4 0 0 0-.95-.375h-5.718c-.34 0-.78.263-1.03.485-.006.002.004-.002 0 0l-19.201 20.479v-32.215c0-.332-.144-.66-.392-.893a1.4 1.4 0 0 0-.952-.373h-4.39c-.35 0-.697.136-.948.373-.254.233-.394.56-.394.893v52.032c0 .334.143.663.392.896.252.235.6.373.953.373h4.388c.352 0 .698-.138.95-.373.254-.233.393-.562.393-.895v-10.504l8.318-9.015 5.597 8.377h-.023l7.87 11.762c.184.261.475.675 1.131.675h5.718c.354 0 .702-.137.951-.375.25-.233.414-.833-.044-1.412M326.717 207.748h.776l1.152 3.393 1.154-3.393h.766v4.014h-.516v-2.374c0-.083.003-.209.003-.406 0-.19.012-.383.012-.606l-1.15 3.386h-.542l-1.149-3.386v.565c.009.213.009.357.009.447v2.374h-.515zM334.66 209.583q.367.002.594-.151c.133-.093.214-.278.214-.555 0-.278-.097-.479-.308-.584a.96.96 0 0 0-.43-.081h-1.3v1.371zm-1.772-1.835h1.833c.3 0 .553.042.74.134.373.165.555.48.555.944 0 .239-.04.436-.144.592-.107.148-.245.28-.426.372.158.068.287.146.365.25.072.103.117.278.117.51l.03.53c0 .16.02.271.036.348.037.119.093.202.178.235v.1h-.665c-.019-.043-.027-.084-.046-.133a1.7 1.7 0 0 1-.022-.318l-.037-.672c-.02-.266-.106-.442-.284-.53-.097-.047-.268-.07-.482-.07h-1.206v1.722h-.542zM331.748 211.741c-.155 0-.261-.115-.261-.292 0-.176.11-.296.278-.296.158 0 .271.12.271.296 0 .177-.113.292-.288.292M337.243 211.741c-.16 0-.277-.115-.277-.292 0-.176.117-.296.283-.296.168 0 .277.12.277.296 0 .177-.109.292-.28.292z" class="st2"/><path d="M422.536 107.188v.569c-.034 11.91-1.298 23.55-5.828 31.878-4.453 8.014-11.612 13.365-25.518 13.578a3.3 3.3 0 0 0-.519 0h-.23c-13.998-.14-21.25-5.505-25.726-13.59-4.569-8.364-5.85-20.1-5.85-32.082v-.724c.014-11.906 1.281-21.46 5.85-29.784 4.475-8.091 11.728-13.459 25.727-13.587h.535c14.008.128 21.235 5.488 25.748 13.604 4.535 8.307 5.81 17.861 5.81 29.767zm3.939-50.42c-.073-.085-.145-.174-.239-.26-7.58-6.992-19.703-11.323-33.753-11.336-.187-.025-.48-.025-.753-.025-11.553-.004-22.949 2.408-32.851 10.885l-.013.009V48.6h.021V10.913c0-.995-.425-1.974-1.17-2.668a4.17 4.17 0 0 0-2.84-1.114h-13.12a4.2 4.2 0 0 0-2.832 1.114 3.64 3.64 0 0 0-1.17 2.668v37.688h.008v80.008h-.008v37.484c0 .995.43 1.974 1.17 2.663a4.18 4.18 0 0 0 2.845 1.114h13.11a4.15 4.15 0 0 0 2.837-1.114 3.6 3.6 0 0 0 1.179-2.663v-7.75c8.75 9.788 21.31 13.161 32.834 13.156h.808c14.017-.047 26.14-4.376 33.698-11.361 14.132-13.378 17.36-33.885 17.407-52.946-.039-18.959-3.275-37.097-17.168-50.424M543.37 109.735c0 11.906-1.276 21.46-5.81 29.768-4.514 8.116-11.741 13.476-25.748 13.603h-.537c-13.999-.127-21.251-5.495-25.726-13.586-4.569-8.325-5.836-17.879-5.849-29.785v-.723c0-11.982 1.28-23.719 5.849-32.082 4.475-8.086 11.727-13.45 25.726-13.59h.23c.28.013.43.013.52 0 13.905.212 21.064 5.564 25.517 13.578 4.53 8.329 5.794 19.967 5.828 31.877v.94m3.94 50.05c13.891-13.328 17.129-31.465 17.167-50.424-.047-19.06-3.276-39.568-17.406-52.946-7.56-6.985-19.682-11.315-33.698-11.362h-.808c-11.524-.004-24.085 3.37-32.835 13.157v-7.75a3.6 3.6 0 0 0-1.178-2.663 4.15 4.15 0 0 0-2.837-1.115h-13.11a4.18 4.18 0 0 0-2.846 1.115 3.67 3.67 0 0 0-1.17 2.662v37.484h.008v80.01h-.008v37.687c0 .995.417 1.973 1.17 2.667a4.2 4.2 0 0 0 2.833 1.114h13.118c1.06 0 2.097-.408 2.842-1.114a3.67 3.67 0 0 0 1.17-2.667v-37.688h-.022v-7.44l.013.009c9.903 8.477 21.299 10.889 32.852 10.885.272 0 .565 0 .753-.026 14.05-.013 26.172-4.343 33.753-11.336.093-.085.166-.174.238-.26M735.515 181.315c-1.154 3.124-3.222 8.167-4.603 11.197 0 0-2.496 5.492-6.03 9.035-3.235 3.23-6.928 5.462-11.09 6.697-4.154 1.23-6.885 1.422-6.885 1.422-3.325.231-8.176.423-10.778.423s-4.735-2.726-4.735-6.055v-8.902c0-3.33 1.354-6.056 3.004-6.056 1.654 0 5.714-.282 9.026-.624 0 0 2.522-.265 4.829-2.034 2.312-1.778 3.48-4.325 3.48-4.325 1.388-3.03 3.435-8.078 4.546-11.219l2.423-6.846c1.111-3.141 1.082-8.27-.06-11.398l-36.71-100.337c-1.146-3.128.645-5.688 3.978-5.688h12.825c3.33 0 6.933 2.581 8.001 5.735l24.048 70.964c1.073 3.159 2.8 3.15 3.846-.012l23.446-70.934c1.046-3.167 4.628-5.753 7.962-5.753h13.051c3.334 0 5.115 2.556 3.966 5.684zM595.743 133.665v-.289c.065-6.35 2.001-10.317 5.645-13.111 3.81-2.904 10.23-4.783 19.843-4.783h32.413v10.073c-.031 9.88-2.2 15.341-5.103 17.89-7.011 6.46-15.691 7.431-26.272 7.458h-.307c-10.186.008-16.873-1.752-20.666-4.507-3.609-2.601-5.462-6.32-5.553-12.73m79.666-46.19v-.088c.004-12.525-4.165-23.264-12.91-30.441-8.799-7.226-21.438-10.62-37.699-10.629h-.81c-17.089-.044-30.647 3.67-40.974 14.65l-.044-.036-.59.71a52 52 0 0 0-2.282 2.688l-.014.031-1.055 1.252a3.58 3.58 0 0 0-.815 2.768 4.18 4.18 0 0 0 1.415 2.676l.596.517q.34.408.761.758l2.309 1.896 6.148 5.312c.784.683 1.822 1.055 2.825 1.003a3.54 3.54 0 0 0 2.57-1.248l3.942-4.682v-.004c2.461-2.663 4.988-4.56 8.04-5.895 4.31-1.887 9.841-2.772 17.833-2.847l.097-.004.267-.009c11.37.027 18.442 2.339 22.488 5.89 4.038 3.491 6.088 8.777 6.119 16.984 0 .053 0 .201.017.385v7.743h-33.748c-13.62.031-25.006 3.106-33.222 9.513-8.164 6.266-12.718 15.91-12.722 27.148l.004.424c.022 9.364 3.539 18.538 9.937 24.915 8.636 8.51 20.145 11.6 37.532 11.6h9.003c15.924.019 27.346-3.919 34.703-11.846 7.34-7.922 10.283-19.392 10.283-33.646V87.69zM202.255 46.843c-3.483 0-7.105 2.742-8.056 6.086l-22.928 80.869c-.95 3.35-2.618 3.384-3.707.077l-26.666-81.022c-1.085-3.304-4.822-6.01-8.305-6.01h-4.783c-3.48 0-7.211 2.707-8.292 6.015L93.062 133.87c-1.08 3.31-2.75 3.282-3.706-.067L66.222 52.931c-.958-3.348-4.591-6.088-8.074-6.088h-9.743c-3.478 0-5.465 2.715-4.416 6.033L79.372 164.47c1.053 3.313 4.76 6.032 8.242 6.032h6.691c3.108 0 6.457-2.41 7.444-5.356l26.45-78.934c1.107-3.3 2.92-3.3 4.036-.004l26.439 78.297c1.116 3.296 4.876 5.997 8.354 5.997h6.477c3.223 0 6.653-2.515 7.622-5.59L216.423 52.88c1.044-3.322-.947-6.037-4.426-6.037zM322.763 104.77c0-36.704-19.474-59.504-50.82-59.504-31.819 0-50.817 23.51-50.817 62.884 0 40.55 19.162 62.885 53.954 62.885 21.61 0 33.204-7.25 44.906-18.945l1.556-1.557-14.934-13.11-1.368 1.364c-9.535 9.535-17.302 12.912-29.676 12.912-20.604 0-32.275-13.096-32.904-36.9h80.103zm-80.017-7.133c.434-7.694.99-11.138 3.343-16.918 4.325-10.24 14.232-16.6 25.855-16.6 11.62 0 21.525 6.355 25.848 16.583 2.36 5.797 2.914 9.241 3.35 16.935z" class="st1"/><path d="M17.57 72.453c6.946 0 12.586-5.67 12.586-12.664s-5.64-12.667-12.586-12.667C10.64 47.122 5 52.796 5 59.789c0 6.994 5.64 12.664 12.57 12.664M782.413 170.43c6.951 0 12.587-5.67 12.587-12.659 0-6.997-5.636-12.676-12.587-12.676-6.933 0-12.56 5.679-12.56 12.676 0 6.989 5.627 12.66 12.56 12.66" class="st2"/></g></svg>