<svg width="1200" height="312" viewBox="0 0 1200 312" fill="none" xmlns="http://www.w3.org/2000/svg">
<g clip-path="url(#clip0_6_11)">
<path fill-rule="evenodd" clip-rule="evenodd" d="M505.882 0C477.778 0 459.477 9.19579 443.137 40.0674L368.627 181.288V55.8316C368.627 18.3916 350.98 0 318.301 0C285.621 0 271.895 11.1663 255.556 42.6947L184.967 181.288V57.1453C184.967 17.0779 168.627 0 128.758 0H47.7124C16.9935 0 0 14.4505 0 40.7242C0 66.9979 16.3399 82.7621 46.4052 82.7621H79.7386V241.061C79.7386 285.726 109.804 312 152.941 312C196.078 312 215.686 294.922 237.255 254.855L284.314 166.181V241.061C284.314 285.069 313.072 312 356.863 312C400.654 312 416.993 296.893 441.83 254.855L550.327 70.9389C573.856 30.8716 557.516 0 505.229 0C505.229 0 505.229 0 505.882 0Z" fill="#873EFF"/>
<path fill-rule="evenodd" clip-rule="evenodd" d="M709.804 0C620.915 0 553.595 66.341 553.595 156.328C553.595 246.316 621.569 312 709.804 312C798.039 312 865.359 245.659 866.013 156.328C866.013 66.341 798.039 0 709.804 0ZM709.804 216.101C676.471 216.101 653.595 191.141 653.595 156.328C653.595 121.516 676.471 95.8989 709.804 95.8989C743.137 95.8989 766.013 121.516 766.013 156.328C766.013 191.141 743.791 216.101 709.804 216.101Z" fill="#873EFF"/>
<path fill-rule="evenodd" clip-rule="evenodd" d="M1043.79 0C955.555 0 887.582 66.341 887.582 156.328C887.582 246.316 955.555 312 1043.79 312C1132.03 312 1200 245.659 1200 156.328C1200 66.9979 1132.03 0 1043.79 0ZM1043.79 216.101C1009.8 216.101 988.235 191.141 988.235 156.328C988.235 121.516 1010.46 95.8989 1043.79 95.8989C1077.12 95.8989 1100 121.516 1100 156.328C1100 191.141 1077.78 216.101 1043.79 216.101Z" fill="#873EFF"/>
</g>
<defs>
<clipPath id="clip0_6_11">
<rect width="1200" height="312" fill="white"/>
</clipPath>
</defs>
</svg>
