<svg width="900" height="900" viewBox="0 0 900 900" fill="none" xmlns="http://www.w3.org/2000/svg">
<path d="M805.019 255.891C836.6 313.514 854.571 379.643 854.571 449.986C854.571 599.248 773.681 729.562 653.4 799.69L776.971 442.405C800.052 384.686 807.738 338.533 807.738 297.495C807.738 282.6 806.757 268.776 805.019 255.891ZM505.752 260.295C530.11 259.014 552.057 256.452 552.057 256.452C573.857 253.871 571.286 221.833 549.476 223.11C549.476 223.11 483.943 228.252 441.638 228.252C401.886 228.252 335.086 223.11 335.086 223.11C313.267 221.833 310.71 255.162 332.519 256.452C332.519 256.452 353.157 259.014 374.957 260.295L437.986 433.005L349.433 698.543L202.11 260.295C226.486 259.014 248.41 256.452 248.41 256.452C270.195 253.871 267.624 221.833 245.824 223.11C245.824 223.11 180.305 228.252 137.995 228.252C130.405 228.252 121.457 228.067 111.957 227.762C184.3 117.933 308.643 45.4048 449.995 45.4048C555.319 45.4048 651.224 85.6762 723.2 151.629C721.457 151.524 719.757 151.305 717.962 151.305C678.219 151.305 650.019 185.924 650.019 223.11C650.019 256.452 669.257 284.662 689.762 318C705.148 344.948 723.119 379.562 723.119 429.581C723.119 464.205 709.8 504.391 692.333 560.371L651.967 695.205L505.752 260.295ZM449.995 854.6C410.281 854.6 371.952 848.776 335.695 838.114L457.1 485.376L581.452 826.086C582.271 828.086 583.276 829.929 584.348 831.662C542.295 846.467 497.11 854.6 449.995 854.6ZM45.4143 449.986C45.4143 391.329 57.9952 335.648 80.4476 285.333L273.443 814.105C138.467 748.533 45.4143 610.129 45.4143 449.986ZM449.995 3.4741e-05C201.867 3.4741e-05 0 201.862 0 449.986C0 698.119 201.867 900.005 449.995 900.005C698.119 900.005 899.995 698.119 899.995 449.986C899.995 201.862 698.119 3.4741e-05 449.995 3.4741e-05Z" fill="#3F3C3C"/>
</svg>
