<?xml version="1.0" encoding="UTF-8"?>
<svg id="Capa_2" data-name="Capa 2" xmlns="http://www.w3.org/2000/svg" viewBox="0 0 170.14 115.72">
  <defs>
    <style>
      .cls-1 {
        fill: #ff61f6;
      }
    </style>
  </defs>
  <g id="Capa_1-2" data-name="Capa 1">
    <g>
      <path class="cls-1" d="M91.24,10.22l-30,49.5,32,52.5c.2.4.3.8.2,1.2s-.5.1-1.1.2h-22.9c-1.6,0-2.7-.1-3.4-1.1-2.1-4.2-4.3-8.3-6.4-12.5-2.1-4.1-4.4-8.3-6.8-12.6s-4.8-8.6-7.2-13h-.2c-2.1,4.3-4.4,8.6-6.7,12.9s-4.6,8.6-6.8,12.8c-2.3,4.2-4.6,8.5-6.9,12.6-.4,1-1.2,1.1-2.3,1.1H.74c-.4,0-.7.2-.7-.3-.1-.4,0-.8.2-1.1l31.1-51L1.04,10.12c-.3-.4-.4-.8-.2-1,.2-.3.6-.4,1-.4h22.7c.5,0,1,.1,1.4.2.4.2.7.5,1,.9,1.9,4.3,4.1,8.6,6.4,12.9,2.4,4.3,4.7,8.5,7.2,12.7,2.4,4.2,4.6,8.4,6.7,12.7h.2c2.1-4.4,4.3-8.7,6.5-12.9s4.5-8.4,6.8-12.6,4.5-8.5,6.7-12.6c.1-.4.3-.8.6-1,.4-.2.8-.3,1.3-.2h21.1c.5-.1,1,.2,1.1.7.1.1-.1.5-.3.7h0Z"/>
      <path class="cls-1" d="M137.44,115.72c-7.4.1-14.8-1.4-21.5-4.5-6.3-2.9-11.5-7.7-15.1-13.6-3.7-6.1-5.5-13.7-5.5-22.8-.1-7.4,1.8-14.7,5.5-21.1,3.8-6.5,9.3-11.9,15.9-15.5,7-3.9,15.4-5.8,25.3-5.8.5,0,1.2,0,2.1.1s1.9.1,3.1.2V1.12c0-.7.3-1.1,1-1.1h20.3c.5-.1.9.3,1,.7v95.4c0,1.8.1,3.8.2,6,.2,2.1.3,4.1.4,5.8,0,.7-.3,1.3-1,1.6-5.2,2.2-10.7,3.8-16.3,4.8-5.1.9-10.2,1.4-15.4,1.4ZM147.24,95.72v-44c-.9-.2-1.8-.4-2.7-.5-1.1-.1-2.2-.2-3.3-.2-3.9,0-7.8.8-11.3,2.6-3.4,1.7-6.3,4.2-8.5,7.4s-3.3,7.5-3.3,12.7c-.1,3.5.5,7,1.7,10.3,1,2.7,2.5,5.1,4.5,7.1,1.9,1.8,4.2,3.2,6.8,4,2.7.9,5.5,1.3,8.3,1.3,1.5,0,2.9-.1,4.2-.2,1.3.1,2.4-.1,3.6-.5h0Z"/>
    </g>
  </g>
</svg>