<?xml version="1.0" encoding="UTF-8"?>
<svg id="Capa_2" data-name="Capa 2" xmlns="http://www.w3.org/2000/svg" viewBox="0 0 154.3 26.01">
  <defs>
    <style>
      .cls-1 {
        fill: #db0510;
      }
    </style>
  </defs>
  <g id="Capa_1-2" data-name="Capa 1">
    <g id="Logotipo">
      <g id="AustroMaq">
        <g id="Austro">
          <path id="Trazado_1" data-name="Trazado 1" d="M14.81,15.53c-2.05-.1-2.2-1.2-2.8-2.68h-6.38c-1.23,3.18-1.58,2.7-5.63,2.7L5.55,2.23C6.3.37,6.65.15,8.8.15h2.3l6.55,15.41c-1.93,0-2.45,0-2.85-.02M8.8,4.6l-1.93,4.98h3.88l-1.95-4.98Z"/>
          <path id="Trazado_2" data-name="Trazado 2" d="M29.11,15.56h-3.85c-5.15,0-7.38-2.08-7.38-7V.15c3.9,0,4.33,0,4.33,2.5v5.83c0,2.63.53,3.48,3.03,3.48h3.05V.15c3.65,0,4.33,0,4.33,2.65v9.9c0,2.6-.35,2.85-3.5,2.85"/>
          <path id="Trazado_3" data-name="Trazado 3" d="M40.61,15.58h-5.98c0-3.08.18-3.58,2.9-3.58h3c2.88,0,2.88-.08,2.88-1.25,0-1.05-1.65-1.25-2.5-1.4-2.85-.58-6.8-.98-6.8-4.3,0-3.1,2.38-4.9,6.98-4.9h6.03c0,3.1-.27,3.55-2.88,3.55h-3.25q-2.6,0-2.6,1.35c0,.32.33.7.98.88,3.13.78,8.3.9,8.3,4.83,0,2.45-1.85,4.83-7.05,4.83"/>
          <path id="Trazado_4" data-name="Trazado 4" d="M58.68,3.7h-1.48v11.86c-3.65,0-4.23-.15-4.23-2.7V3.7h-4.45c0-3.28.25-3.5,2.78-3.5h10.31c0,3.2-.3,3.5-2.93,3.5"/>
          <path id="Trazado_5" data-name="Trazado 5" d="M74.74,15.56c-1.9,0-2.7-.2-3.78-1.78l-2.8-4.08c-.57-.88-.78-2.8,1.3-2.8h.93q1.83,0,1.83-1.65c0-.65-.05-1.58-2.75-1.58h-2.13v11.88c-3.73,0-4.3,0-4.3-2.73V2.9c0-2.7.85-2.7,3.48-2.7h2.8c6.33,0,7.23,2.88,7.23,5.05,0,3.13-2,4.25-4.2,4.25l5.65,6.05h-3.25Z"/>
          <path id="Trazado_6" data-name="Trazado 6" d="M86.19,15.73c-6.55,0-8.15-3.83-8.15-7.85s1.63-7.88,8.13-7.88,8.18,3.85,8.18,7.9-1.58,7.83-8.15,7.83M86.19,3.53c-3.8,0-3.8.05-3.8,4.35,0,2.7.7,4.35,3.78,4.35,3.85,0,3.85-.02,3.85-4.33,0-2.73-.68-4.38-3.83-4.38"/>
        </g>
        <g id="Maq">
          <path id="Trazado_7" data-name="Trazado 7" class="cls-1" d="M113.51,15.55c-1.85-.15-1.85-1.3-1.85-2.63v-6.38l-2.85,6.98c-.6,1.5-.88,2.05-2.8,2.05h-1.88l-3.8-9.03v9.03c-3.63,0-4.25-.13-4.25-2.65V.16h2.25c2.35,0,3.05-.17,4.03,2.23l3.65,9.08,3.68-9.1c.8-1.98,1.13-2.2,3.68-2.2h2.58v15.41c-1.53,0-2.03,0-2.43-.02"/>
          <path id="Trazado_8" data-name="Trazado 8" class="cls-1" d="M131.99,15.55c-2.05-.1-2.2-1.2-2.8-2.68h-6.38c-1.23,3.18-1.58,2.7-5.63,2.7l5.55-13.33c.75-1.85,1.1-2.08,3.25-2.08h2.3l6.55,15.41c-1.93,0-2.45,0-2.85-.02M125.99,4.62l-1.93,4.98h3.88l-1.95-4.98Z"/>
          <g id="Grupo_1" data-name="Grupo 1">
            <path id="Trazado_9" data-name="Trazado 9" class="cls-1" d="M149.87,13.71c0,.63.17.98,1.88.98,2.35,0,2.55.02,2.55,3.03h-2.55c-4.1,0-5.38-1.25-5.38-4.05l3.5.05Z"/>
            <path id="Trazado_10" data-name="Trazado 10" class="cls-1" d="M148.3.53h0s-.07-.02-.07-.02c-.4-.11-.81-.19-1.23-.24-2.19-.35-4.43-.34-6.62.04h0c-4.68.79-5.92,4.18-5.92,7.71,0,3.73,1.38,7.28,6.78,7.79h0c1.7.21,3.42.21,5.13.01.02,0,.04,0,.06,0,5.46-.49,6.82-4.05,6.82-7.77,0-3.28-1.04-6.43-4.94-7.51M147.51,12.4s-.09.02-.15.02-.11.01-.16.02c0,0-.01,0-.02,0h-.03c-.1.01-.21.02-.33.03-1.66.15-3.33.1-4.98-.15h0c-2.46-.39-3.03-1.83-3.03-4.31,0-3.14-.07-4.07,1.37-4.34.01,0,.03,0,.04,0,0,0,.02,0,.02,0,.16-.03.34-.05.53-.06,1.44-.09,2.89-.08,4.33.05h.16s.14.03.14.03c2.87.28,3.52,1.74,3.52,4.37,0,3.17.07,4.09-1.41,4.35"/>
          </g>
        </g>
      </g>
      <g id="Servicios_Industriales" data-name="Servicios Industriales">
        <g id="Servicios">
          <path id="Trazado_11" data-name="Trazado 11" d="M25.62,25.23l.33-.69c.58.47,1.3.72,2.04.71,1.07,0,1.53-.42,1.53-.95,0-1.51-3.74-.56-3.74-2.85,0-.95.74-1.77,2.37-1.77.7-.01,1.39.18,1.99.55l-.29.71c-.51-.32-1.09-.5-1.7-.5-1.05,0-1.5.44-1.5.98,0,1.51,3.74.56,3.74,2.83,0,.94-.76,1.76-2.39,1.76-.94,0-1.87-.32-2.37-.78"/>
          <path id="Trazado_12" data-name="Trazado 12" d="M36.2,23.88h-3.8c.11.82.77,1.37,1.69,1.37.51.02,1.01-.19,1.35-.57l.47.55c-.47.51-1.15.79-1.85.76-1.51,0-2.52-1-2.52-2.39-.05-1.26.93-2.33,2.2-2.38.05,0,.1,0,.15,0,1.35,0,2.31.97,2.31,2.41,0,.07,0,.18-.02.26M32.4,23.27h3c-.09-.83-.84-1.43-1.67-1.33-.7.08-1.25.63-1.33,1.33"/>
          <path id="Trazado_13" data-name="Trazado 13" d="M40.35,21.22v.82c-.06,0-.13-.01-.19,0-.91,0-1.47.56-1.47,1.58v2.33h-.85v-4.68h.81v.79c.3-.55.88-.83,1.7-.83"/>
          <path id="Trazado_14" data-name="Trazado 14" d="M46.17,21.26l-2.05,4.68h-.86l-2.05-4.68h.88l1.61,3.75,1.64-3.75h.83Z"/>
          <path id="Trazado_15" data-name="Trazado 15" d="M47.25,19.81c0-.31.25-.56.56-.56,0,0,0,0,.01,0,.3.01.54.27.53.57-.01.3-.27.54-.57.53-.29-.01-.53-.25-.53-.55M47.4,21.26h.85v4.68h-.85v-4.68Z"/>
          <path id="Trazado_16" data-name="Trazado 16" d="M49.88,23.6c0-1.39,1.03-2.38,2.47-2.38.84,0,1.54.34,1.91,1l-.64.42c-.28-.43-.76-.69-1.27-.67-.86-.03-1.58.64-1.61,1.49,0,.05,0,.1,0,.15-.06.85.59,1.59,1.45,1.65.05,0,.11,0,.16,0,.51.02.99-.24,1.27-.67l.64.41c-.37.65-1.07,1.01-1.91,1.01-1.44,0-2.47-1-2.47-2.39"/>
          <path id="Trazado_17" data-name="Trazado 17" d="M55.64,19.81c0-.31.25-.56.56-.56,0,0,0,0,.01,0,.3.01.54.27.53.57-.01.3-.27.54-.57.53-.29-.01-.53-.25-.53-.55M55.79,21.26h.85v4.68h-.85v-4.68Z"/>
          <path id="Trazado_18" data-name="Trazado 18" d="M58.27,23.6c0-1.39,1.03-2.38,2.44-2.38s2.43.99,2.43,2.38c.04,1.29-.98,2.36-2.26,2.39-.05,0-.11,0-.16,0-1.4,0-2.44-1-2.44-2.39M62.27,23.6c0-1-.67-1.64-1.57-1.64s-1.58.64-1.58,1.64.68,1.65,1.58,1.65,1.57-.65,1.57-1.65"/>
          <path id="Trazado_19" data-name="Trazado 19" d="M64.16,25.44l.35-.67c.49.32,1.06.49,1.64.49.79,0,1.11-.24,1.11-.64,0-1.05-2.96-.14-2.96-2,0-.84.75-1.4,1.95-1.4.6-.01,1.18.14,1.7.42l-.36.67c-.4-.25-.87-.38-1.35-.37-.74,0-1.1.27-1.1.64,0,1.1,2.97.2,2.97,2.02,0,.85-.78,1.39-2.02,1.39-.78,0-1.54-.24-1.93-.55"/>
        </g>
        <g id="Industriales">
          <rect id="Rect치ngulo_1" data-name="Rect치ngulo 1" x="72.55" y="19.76" width=".88" height="6.18"/>
          <path id="Trazado_20" data-name="Trazado 20" d="M80.05,23.25v2.69h-.85v-2.6c0-.92-.46-1.37-1.26-1.37-.9,0-1.48.54-1.48,1.55v2.41h-.85v-4.68h.81v.71c.41-.51,1.04-.79,1.69-.75,1.14,0,1.94.65,1.94,2.03"/>
          <path id="Trazado_21" data-name="Trazado 21" d="M86.5,19.39v6.55h-.81v-.74c-.39.52-1.02.82-1.67.79-1.37,0-2.37-.96-2.37-2.39s1-2.38,2.37-2.38c.63-.02,1.24.25,1.63.75v-2.58h.85ZM85.66,23.6c0-1-.68-1.64-1.57-1.64s-1.58.64-1.58,1.64.68,1.65,1.58,1.65,1.57-.65,1.57-1.65"/>
          <path id="Trazado_22" data-name="Trazado 22" d="M92.91,21.26v4.68h-.8v-.71c-.37.5-.97.78-1.59.76-1.21,0-2.01-.66-2.01-2.04v-2.69h.85v2.6c0,.92.46,1.38,1.26,1.38.88,0,1.45-.55,1.45-1.55v-2.42h.85Z"/>
          <path id="Trazado_23" data-name="Trazado 23" d="M94.38,25.44l.35-.67c.49.32,1.06.49,1.64.49.79,0,1.11-.24,1.11-.64,0-1.05-2.96-.14-2.96-2,0-.84.75-1.4,1.95-1.4.6-.01,1.18.14,1.7.42l-.36.67c-.4-.25-.87-.38-1.35-.37-.74,0-1.1.27-1.1.64,0,1.1,2.97.2,2.97,2.02,0,.85-.78,1.39-2.02,1.39-.78,0-1.54-.24-1.93-.55"/>
          <path id="Trazado_24" data-name="Trazado 24" d="M102.47,25.66c-.29.22-.66.34-1.02.33-.94,0-1.48-.52-1.48-1.47v-2.57h-.79v-.7h.79v-1.02h.85v1.02h1.34v.7h-1.34v2.53c0,.5.26.79.73.79.24,0,.47-.07.66-.22l.26.61Z"/>
          <path id="Trazado_25" data-name="Trazado 25" d="M106.45,21.22v.82c-.06,0-.13-.01-.19,0-.91,0-1.47.56-1.47,1.58v2.33h-.85v-4.68h.81v.79c.3-.55.88-.83,1.7-.83"/>
          <path id="Trazado_26" data-name="Trazado 26" d="M107.78,19.81c0-.31.25-.56.56-.56,0,0,0,0,.01,0,.3.01.54.27.53.57-.01.3-.27.54-.57.53-.29-.01-.53-.25-.53-.55M107.93,21.26h.85v4.68h-.85v-4.68Z"/>
          <path id="Trazado_27" data-name="Trazado 27" d="M114.55,23.11v2.83h-.8v-.62c-.28.42-.8.67-1.54.67-1.06,0-1.73-.56-1.73-1.38,0-.75.49-1.37,1.88-1.37h1.34v-.17c0-.71-.42-1.13-1.25-1.13-.54,0-1.06.17-1.48.5l-.35-.64c.56-.41,1.24-.62,1.93-.6,1.28,0,2,.62,2,1.9M113.7,24.51v-.65h-1.31c-.84,0-1.08.33-1.08.72,0,.47.39.76,1.03.76.58.04,1.13-.29,1.35-.83"/>
          <rect id="Rect치ngulo_2" data-name="Rect치ngulo 2" x="116.56" y="19.39" width=".85" height="6.55"/>
          <path id="Trazado_28" data-name="Trazado 28" d="M123.68,23.88h-3.79c.11.82.77,1.37,1.69,1.37.51.02,1.01-.19,1.35-.57l.47.55c-.47.51-1.15.79-1.85.76-1.51,0-2.52-1-2.52-2.39-.05-1.26.93-2.33,2.2-2.38.05,0,.1,0,.15,0,1.35,0,2.31.97,2.31,2.41,0,.07,0,.18-.02.26M119.88,23.27h3c-.09-.83-.84-1.42-1.67-1.33-.7.08-1.25.63-1.33,1.33"/>
          <path id="Trazado_29" data-name="Trazado 29" d="M124.72,25.44l.35-.67c.49.32,1.06.49,1.64.49.79,0,1.11-.24,1.11-.64,0-1.05-2.96-.14-2.96-2,0-.84.75-1.4,1.95-1.4.6-.01,1.18.14,1.7.42l-.36.67c-.4-.25-.87-.38-1.35-.37-.74,0-1.1.27-1.1.64,0,1.1,2.97.2,2.97,2.02,0,.85-.78,1.39-2.02,1.39-.78,0-1.54-.24-1.93-.55"/>
        </g>
      </g>
    </g>
  </g>
</svg>