<?xml version="1.0" encoding="UTF-8"?>
<svg id="Capa_2" data-name="Capa 2" xmlns="http://www.w3.org/2000/svg" viewBox="0 0 82.54 50.13">
  <defs>
    <style>
      .cls-1 {
        fill: #fff;
      }
    </style>
  </defs>
  <g id="Capa_1-2" data-name="Capa 1">
    <g>
      <path id="Trazado_12470" data-name="Trazado 12470" class="cls-1" d="M8.66,36.92v4.87H3.66v-4.87H0v12.95h3.66v-5.05h5v5.05h3.66v-12.95h-3.66Z"/>
      <g id="Grupo_5845" data-name="Grupo 5845">
        <g id="Grupo_5844" data-name="Grupo 5844">
          <path id="Trazado_12471" data-name="Trazado 12471" class="cls-1" d="M14.8,44.1v-7.18h3.66v7.07c0,2.22.93,3.11,2.46,3.11s2.44-.89,2.44-3.11v-7.07h3.61v7.18c0,3.87-2.26,6.03-6.09,6.03s-6.09-2.17-6.09-6.03"/>
          <path id="Trazado_12472" data-name="Trazado 12472" class="cls-1" d="M41.14,49.87l-.04-6.87-3.33,5.59h-1.63l-3.31-5.4v6.68h-3.39v-12.95h3.01l4.55,7.48,4.44-7.48h3.01l.04,12.95h-3.37Z"/>
          <path id="Trazado_12473" data-name="Trazado 12473" class="cls-1" d="M58.79,49.87l-.04-6.87-3.33,5.59h-1.63l-3.31-5.4v6.68h-3.39v-12.95h3.02l4.55,7.48,4.44-7.48h3.02l.04,12.95h-3.36Z"/>
          <path id="Trazado_12474" data-name="Trazado 12474" class="cls-1" d="M64.08,43.39c0-3.89,3.05-6.73,7.2-6.73s7.2,2.85,7.2,6.73-3.05,6.73-7.2,6.73-7.2-2.85-7.2-6.73M74.77,43.39c0-2.24-1.54-3.7-3.5-3.7s-3.5,1.46-3.5,3.7,1.54,3.7,3.5,3.7,3.5-1.46,3.5-3.7"/>
          <path id="Trazado_12475" data-name="Trazado 12475" class="cls-1" d="M40.87,32.68c-.86-.45-1.59-1.11-2.14-1.92-1.28-1.61-1.81-3.69-1.46-5.72.29-1.49.91-2.9,1.83-4.11,1.16-1.66,2.44-3.23,3.55-4.92,1.23-1.87,2.03-3.99,2.34-6.2.04-.54.04-1.08,0-1.62.44.6.91,1.17,1.31,1.78.82,1.25,1.46,2.59,1.59,4.11.09,1.05-.15,2.06-.38,3.08-.55,2.45-1.82,4.48-3.47,6.33-.85.94-1.64,1.93-2.41,2.94-1.27,1.66-1.46,3.53-.96,5.51.06.22.12.44.21.74"/>
          <path id="Trazado_12476" data-name="Trazado 12476" class="cls-1" d="M34.13,24.39c-.1-.04-.2-.08-.29-.14-2.11-1.66-3.31-3.78-3.27-6.51.02-1.57.62-2.99,1.45-4.28.94-1.45,1.93-2.88,3-4.23,1.48-1.9,2.54-4.08,3.13-6.4.28-.92.32-1.89.12-2.83.1.06.19.13.27.2,1.1,1.33,2.03,2.77,2.51,4.45.28,1.07.29,2.19.05,3.27-.35,2.2-1.26,4.28-2.63,6.04-.77.95-1.58,1.85-2.36,2.79-.75.9-1.51,1.79-1.93,2.9-.51,1.37-.54,2.87-.09,4.27.04.13.07.27.1.4-.03.03-.05.05-.08.08"/>
          <path id="Trazado_12477" data-name="Trazado 12477" class="cls-1" d="M80.57,40.47c-.53.01-1.04-.2-1.41-.58-.37-.39-.58-.92-.56-1.46-.02-.54.19-1.07.56-1.45.78-.78,2.04-.78,2.82,0,.38.39.58.91.56,1.45.01.54-.19,1.07-.56,1.46-.37.38-.88.59-1.41.58M80.57,40.07c.42.02.83-.15,1.12-.46.59-.68.59-1.68,0-2.36-.29-.31-.7-.48-1.12-.46-.42-.01-.83.15-1.13.46-.58.68-.58,1.68,0,2.36.29.31.7.47,1.13.46M79.95,39.64v-2.42h.66c.31-.04.59.17.64.48,0,.05,0,.11,0,.16v.05c.03.22-.09.43-.29.53h0c.2.07.29.25.29.53v.34c0,.11.01.23.05.33h-.44c-.03-.11-.05-.22-.04-.34v-.31c0-.25-.07-.33-.27-.33h-.17v.98h-.43ZM80.38,38.27h.18c.17,0,.26-.1.26-.29v-.07c0-.19-.08-.29-.23-.29h-.2v.65Z"/>
        </g>
      </g>
    </g>
  </g>
</svg>