<svg xmlns="http://www.w3.org/2000/svg" viewBox="0 0 100.79 93.73">
    <g>
        <path fill="#efd319" d="M74.68,42.11l-24.86,19.05c-.57.44-.9.89-.9,1.23s.1.44,1,.44h49.93c.64-4.63.93-9.92.93-15.97C100.79,7.58,88.36,0,50.4,0S0,7.58,0,46.86s12.43,46.87,50.4,46.87c23.86,0,37.64-3.01,44.58-14.99H29.78c-5.6,0-9.75-4.37-9.75-11.42,0-5.82,2.02-8.86,5.48-11.54l25.65-19.59c.56-.45.89-.79.89-1.01,0-.34-.34-.56-1.11-.56h-20.12c-4.78,0-8.66-3.88-8.66-8.66v-6.57h46.92c6.5,0,10.98,3.81,10.98,10.87,0,6.61-2.7,9.74-5.38,11.86Z"/>
        <path fill="#fff8e0" d="M99.86,62.83c-.89,6.55-2.48,11.76-4.89,15.91H29.78c-5.6,0-9.75-4.37-9.75-11.42,0-5.82,2.02-8.86,5.48-11.54l25.65-19.59c.56-.45.89-.79.89-1.01,0-.34-.34-.56-1.11-.56h-20.12c-4.78,0-8.66-3.88-8.66-8.66v-6.57h46.92c6.5,0,10.98,3.81,10.98,10.87,0,6.61-2.7,9.74-5.38,11.86l-24.86,19.05c-.57.44-.9.89-.9,1.23s.1.44,1,.44h49.93Z"/>
    </g>
</svg>
