<?xml version="1.0" encoding="UTF-8"?>
<svg id="Capa_2" data-name="Capa 2" xmlns="http://www.w3.org/2000/svg" viewBox="0 0 169.87 28.94">
  <defs>
    <style>
      .cls-1 {
        fill: #ff6700;
      }

      .cls-2 {
        fill: #fff;
      }

      .cls-3 {
        fill: #5500ce;
      }

      .cls-4 {
        fill: #f7cd00;
      }
    </style>
  </defs>
  <g id="Capa_1-2" data-name="Capa 1">
    <g id="Logotipo_Oficial" data-name="Logotipo Oficial">
      <g id="uuid-ae0042ca-dfed-4a79-a440-fab857eaecd8" data-name="Capa 1-2">
        <g id="Grupo_4636" data-name="Grupo 4636">
          <g id="Grupo_4634" data-name="Grupo 4634">
            <path id="Trazado_10393" data-name="Trazado 10393" class="cls-2" d="M48.72,8.4v4.58h5.73c.43,0,.84.17,1.15.47.31.3.48.72.47,1.15h0c0,.43-.17.84-.47,1.15-.3.31-.72.48-1.15.47h-5.73v5.74c0,1-.81,1.82-1.82,1.82h0c-1,0-1.82-.81-1.82-1.81,0,0,0,0,0,0V5.16h10.64c.89,0,1.62.72,1.62,1.61,0,0,0,0,0,0h0c0,.9-.73,1.62-1.62,1.62h-7.01Z"/>
            <path id="Trazado_10394" data-name="Trazado 10394" class="cls-2" d="M59.86,23.78V6.98c0-1,.81-1.82,1.82-1.82h0c.48,0,.93.19,1.27.52.35.34.54.81.54,1.3v13.56h6.83c.43,0,.84.17,1.15.47.31.3.48.72.47,1.15h0c0,.89-.72,1.62-1.61,1.62,0,0,0,0,0,0h-10.46Z"/>
            <path id="Trazado_10395" data-name="Trazado 10395" class="cls-2" d="M74.36,21.97V6.98c0-1,.81-1.82,1.82-1.82h0c1,0,1.82.81,1.82,1.81h0v14.99c0,1-.82,1.82-1.82,1.82h0c-1,0-1.82-.81-1.82-1.82h0Z"/>
            <path id="Trazado_10396" data-name="Trazado 10396" class="cls-2" d="M88.79,16.77h-3.58v5.19c0,1-.81,1.82-1.82,1.82h0c-1,0-1.82-.82-1.82-1.82V5.16h7.22c3.85,0,6.15,2.64,6.15,5.81s-2.3,5.81-6.15,5.81ZM88.6,8.4h-3.4v5.1h3.4c1.65,0,2.69-1.02,2.69-2.54s-1.05-2.56-2.69-2.56Z"/>
            <path id="Trazado_10397" data-name="Trazado 10397" class="cls-2" d="M97.41,23.78V5.16h10.64c.9,0,1.62.73,1.62,1.62h0c0,.89-.72,1.62-1.61,1.62,0,0,0,0,0,0h-7.01v4.37h5.73c.89,0,1.62.72,1.62,1.61,0,0,0,0,0,0h0c0,.9-.73,1.62-1.62,1.62h-5.73v4.52h7.01c.43,0,.84.17,1.15.47.31.3.48.72.47,1.15h0c0,.9-.73,1.62-1.62,1.62h-10.64Z"/>
            <path id="Trazado_10398" data-name="Trazado 10398" class="cls-2" d="M123.67,22.58l-.7-2.09h-6.62l-.72,2.1c-.15.43-.46.79-.87,1-.25.13-.52.19-.8.19h-.01c-.46,0-.9-.18-1.23-.5-.5-.48-.67-1.21-.43-1.87l5.43-14.92c.29-.8,1.05-1.33,1.9-1.33h.02c.41,0,.81.12,1.15.36.34.24.6.58.75.97l5.45,14.92c.33.92-.14,1.93-1.05,2.26-.19.07-.4.11-.6.11h0c-.76,0-1.43-.48-1.67-1.2h0ZM119.73,10.65l-2.35,6.77h4.63l-2.27-6.77Z"/>
            <path id="Trazado_10399" data-name="Trazado 10399" class="cls-3" d="M143.23,21.97v-9.04l-3,5.96c-.34.68-1.03,1.1-1.79,1.1h0c-.38,0-.76-.11-1.08-.32-.3-.19-.54-.46-.7-.78l-3.03-5.97v9.04c0,1-.81,1.82-1.82,1.82h0c-1,0-1.82-.81-1.82-1.82V7.36c0-1.21.98-2.2,2.2-2.2,0,0,0,0,0,0h0c.84,0,1.61.48,1.98,1.24l4.26,8.83,4.24-8.82c.22-.46.6-.83,1.06-1.04.29-.13.6-.2.92-.2h0c1.21,0,2.2.98,2.2,2.2h0v14.61c0,1-.82,1.82-1.82,1.82h0c-1,0-1.82-.81-1.82-1.82h0Z"/>
            <path id="Trazado_10400" data-name="Trazado 10400" class="cls-3" d="M150.51,23.78V5.16h10.64c.43,0,.84.17,1.15.47.31.3.48.72.47,1.15h0c0,.89-.72,1.62-1.61,1.62,0,0,0,0,0,0h-7.01v4.37h5.73c.43,0,.84.17,1.15.47.31.3.48.72.47,1.15h0c0,.9-.73,1.62-1.62,1.62,0,0,0,0,0,0h-5.72v4.52h7.01c.43,0,.84.17,1.15.47.31.3.48.72.47,1.15h0c0,.9-.73,1.62-1.62,1.62h-10.64,0Z"/>
            <path id="Trazado_10401" data-name="Trazado 10401" class="cls-3" d="M167.89,17.95h0c-.71,0-1.29-.55-1.34-1.25l-.62-9.44c-.07-1.09.75-2.02,1.84-2.09.04,0,.09,0,.13,0h0c1.09,0,1.97.88,1.97,1.97,0,.04,0,.09,0,.13l-.64,9.44c-.05.7-.63,1.25-1.34,1.25h0ZM165.96,21.85h0c0-1.07.87-1.94,1.94-1.94h.03c1.07,0,1.94.87,1.94,1.94h0c0,1.07-.87,1.93-1.93,1.93,0,0,0,0,0,0h-.03c-.48,0-.94-.17-1.29-.49-.41-.37-.64-.89-.64-1.44h0Z"/>
          </g>
          <g id="Grupo_4635" data-name="Grupo 4635">
            <path id="Trazado_10402" data-name="Trazado 10402" class="cls-3" d="M32.59,5.56L25.32.71c-1.42-.94-3.26-.94-4.68,0l-9.15,6.1v11.11c0,2.33,1.89,4.21,4.21,4.21h14.55c2.33,0,4.21-1.89,4.21-4.21h0v-8.85c0-1.41-.7-2.73-1.88-3.51h0Z"/>
            <path id="Trazado_10403" data-name="Trazado 10403" class="cls-4" d="M18.77,6.81H4.21C1.89,6.81,0,8.7,0,11.03h0v8.85c0,1.41.7,2.73,1.88,3.51l7.27,4.85c1.42.94,3.26.94,4.68,0l9.15-6.1v-11.11c0-2.33-1.89-4.21-4.21-4.21h0,0Z"/>
            <path id="Trazado_10404" data-name="Trazado 10404" class="cls-1" d="M18.77,6.81h-7.27v11.11c0,2.33,1.89,4.21,4.21,4.21h7.28v-11.11c0-2.33-1.89-4.21-4.21-4.21h0Z"/>
          </g>
        </g>
      </g>
    </g>
  </g>
</svg>