<?xml version="1.0" encoding="UTF-8"?>
<svg id="Capa_2" data-name="Capa 2" xmlns="http://www.w3.org/2000/svg" viewBox="0 0 99.49 37.1">
  <defs>
    <style>
      .cls-1 {
        fill: #f9f9f9;
      }

      .cls-2 {
        fill: #ff4967;
      }
    </style>
  </defs>
  <g id="Capa_1-2" data-name="Capa 1">
    <g id="Logotipo_01" data-name="Logotipo 01">
      <g id="Grupo_346" data-name="Grupo 346">
        <path id="Trazado_921" data-name="Trazado 921" class="cls-2" d="M94.96,36.95h-39.61c-2.5,0-4.53-2.1-4.53-4.7V4.7C50.82,2.11,52.85,0,55.35,0h44.14v32.25c0,2.59-2.03,4.7-4.53,4.7Z"/>
        <g id="Grupo_340" data-name="Grupo 340">
          <g id="Grupo_338" data-name="Grupo 338">
            <path id="Trazado_922" data-name="Trazado 922" class="cls-1" d="M21.63,26.64v-.4c.51-.02,1.01-.1,1.5-.24.33-.09.55-.41.51-.75v-9.36c0-1.42-.25-2.55-.76-3.39s-1.4-1.27-2.67-1.27c-.73-.03-1.45.2-2.03.64-.61.49-1.18,1.04-1.69,1.63v11.85c0,.17.06.32.18.44.13.13.3.22.48.28.21.06.42.11.64.15.23.04.46.07.68.09v.33h-7.19v-.4c.53-.03,1.06-.11,1.58-.24.36-.07.61-.39.59-.75v-9.39c0-1.44-.25-2.57-.75-3.39s-1.39-1.23-2.66-1.23c-.7-.03-1.39.15-1.98.51-.63.45-1.21.96-1.73,1.54v12.03c.03.2.12.38.26.53.13.11.29.2.46.24.2.05.4.08.61.09.23.01.47.04.7.09v.37H1.23v-.37c.5-.03.99-.15,1.45-.33.37-.12.61-.46.61-.84v-12.55c0-.15-.01-.3-.05-.44-.07-.14-.18-.25-.31-.33-.22-.12-.48-.26-.77-.42-.3-.16-.59-.3-.88-.42v-.29l4.81-1.72h.22v3.96l.07.04c.28-.48.59-.94.95-1.37.4-.48.85-.91,1.35-1.28.52-.38,1.07-.7,1.66-.95.59-.26,1.24-.39,1.88-.39,1.07-.04,2.1.38,2.83,1.16.72.77,1.16,1.8,1.33,3.1h.11c.26-.5.56-.97.92-1.41.4-.51.86-.98,1.36-1.39.52-.43,1.09-.78,1.71-1.05.61-.27,1.26-.4,1.93-.4,1.42,0,2.49.51,3.21,1.54.72,1.03,1.08,2.35,1.08,3.96v10.93c0,.17.08.33.22.44.16.13.34.22.53.28.22.06.45.11.68.15.24.04.48.07.7.09v.33h-7.19,0Z"/>
            <path id="Trazado_923" data-name="Trazado 923" class="cls-1" d="M42.78,3.09c-.26.36-.68.56-1.12.55-.4.02-.8-.11-1.12-.35-.31-.24-.59-.51-.84-.81-.26-.31-.5-.61-.73-.9-.2-.27-.47-.47-.79-.59-.21.01-.42.05-.62.11-.3.09-.59.25-.83.46-.32.28-.57.63-.74,1.03-.23.58-.36,1.19-.38,1.82-.05.98-.08,1.81-.09,2.51-.01.7-.02,1.49-.02,2.37h4.33l-.48,1.61h-3.89v14.31c.05.22.18.4.37.51.23.14.47.23.73.3.32.08.64.12.97.15.35.03.71.06,1.08.11v.37h-9.32v-.37c.27-.03.58-.07.94-.13s.7-.13,1.02-.22c.29-.07.57-.18.83-.33.19-.09.32-.28.33-.49v-14.2h-2.64l.4-1.61h2.27c0-1.03.03-2.04.09-3.03.01-.79.18-1.57.5-2.3.28-.58.67-1.11,1.14-1.56.5-.49,1.06-.91,1.67-1.25.65-.36,1.34-.65,2.05-.84C38.65.1,39.42,0,40.19,0c.36,0,.73.04,1.08.11.33.07.65.18.95.33.27.14.51.33.7.57.19.25.29.55.28.86,0,.44-.15.87-.42,1.21h0Z"/>
            <path id="Trazado_924" data-name="Trazado 924" class="cls-2" d="M45.29,26.14c-.43.37-.98.56-1.54.53-.58.02-1.14-.18-1.58-.57-.42-.39-.65-.95-.63-1.52-.02-.6.21-1.17.63-1.6.41-.43.98-.66,1.58-.64.59-.02,1.16.23,1.54.68.39.45.6,1.03.59,1.63.03.56-.18,1.1-.59,1.49h0Z"/>
          </g>
          <g id="Grupo_339" data-name="Grupo 339">
            <path id="Trazado_925" data-name="Trazado 925" class="cls-1" d="M5.31,37.07v-.11c.06,0,.11-.01.17-.02.09-.02.18-.04.27-.08.09-.04.17-.09.25-.16.07-.07.11-.16.1-.26,0-.11-.03-.22-.06-.33-.04-.15-.1-.34-.17-.55s-.16-.46-.26-.73-.2-.55-.31-.84h-2.97c-.11.29-.22.55-.32.81s-.21.51-.31.77c-.12.27-.2.56-.23.85,0,.09.03.17.09.24.07.07.14.12.23.16.1.04.2.07.3.09.11.02.21.04.3.05v.11H0v-.13c.17-.02.34-.07.5-.16.09-.04.17-.1.24-.17.1-.11.18-.24.26-.37.16-.28.31-.57.44-.86.16-.35.33-.75.52-1.19.19-.45.39-.91.6-1.38.2-.47.41-.95.61-1.43s.39-.93.57-1.34l-.11-.25c.13-.06.25-.13.36-.21.1-.08.2-.17.28-.26.07-.08.14-.16.21-.25.05-.08.1-.15.13-.2h.09c.23.62.45,1.21.66,1.76s.41,1.09.6,1.6c.19.51.38,1.01.55,1.49s.36.95.54,1.42c.08.23.16.42.23.57.07.15.15.33.24.52.03.05.06.1.1.15.06.08.13.16.21.23.1.08.2.16.32.21.14.06.29.1.44.1v.14h-3.26,0ZM3.85,30.3c-.04.1-.11.25-.2.46s-.19.46-.32.76c-.13.3-.27.63-.42,1.01s-.32.78-.5,1.22h2.78c-.13-.33-.25-.67-.38-1s-.26-.66-.38-.96c-.12-.31-.23-.59-.33-.85s-.18-.46-.25-.63h0Z"/>
            <path id="Trazado_926" data-name="Trazado 926" class="cls-1" d="M12.16,36.19c-.11.21-.27.39-.46.52-.2.14-.43.23-.66.29-.26.06-.52.09-.79.09-.31,0-.62-.03-.93-.09-.28-.06-.55-.14-.8-.26v-1.47h.09c.06.18.13.37.22.56.09.19.2.38.32.55.12.17.28.31.46.41.19.11.41.17.63.16.31.02.62-.09.85-.31.23-.26.35-.6.32-.94,0-.21-.07-.42-.22-.57-.16-.16-.37-.27-.6-.31-.2-.04-.39-.08-.58-.12-.17-.04-.34-.09-.5-.15-.27-.09-.51-.27-.68-.5-.18-.25-.27-.55-.26-.86,0-.22.05-.43.15-.62.1-.19.23-.35.39-.48.17-.14.36-.24.57-.31.22-.07.46-.11.69-.11.28,0,.55.03.83.09.23.05.46.12.68.21l.13,1.38-.09.02c-.1-.22-.21-.43-.31-.62-.09-.18-.21-.34-.34-.49-.12-.13-.27-.24-.43-.32-.17-.08-.36-.12-.55-.11-.13,0-.25.02-.37.07-.12.04-.23.11-.32.2-.1.09-.17.2-.23.32-.06.14-.09.3-.09.45-.02.22.07.44.24.59.18.13.38.22.59.27.17.04.34.08.54.12s.36.08.5.12c.33.08.63.26.86.51.24.26.36.61.35.96,0,.26-.05.52-.17.75h0Z"/>
            <path id="Trazado_927" data-name="Trazado 927" class="cls-1" d="M17.76,35.41c-.14.33-.33.63-.57.89-.24.25-.52.45-.83.59-.31.14-.65.22-1,.22-.31,0-.61-.06-.9-.16-.67-.22-1.22-.72-1.51-1.37-.18-.39-.26-.82-.25-1.25,0-.34.07-.68.2-.99.13-.32.31-.6.55-.85.24-.25.53-.45.85-.59.35-.15.72-.23,1.1-.23.31,0,.62.06.91.17.3.11.59.28.83.5.26.23.47.51.61.83.17.37.25.77.24,1.17,0,.37-.07.74-.21,1.08h0ZM16.85,33.5c-.05-.28-.14-.55-.28-.8-.12-.24-.29-.45-.5-.61-.22-.16-.49-.25-.77-.24-.24,0-.47.08-.66.23-.2.16-.37.36-.5.58-.14.26-.25.53-.31.82-.07.3-.11.61-.11.92,0,.33.03.65.09.97.05.28.15.56.29.81.12.22.3.42.51.56.22.14.48.21.75.2.27,0,.53-.09.73-.26.21-.18.37-.41.48-.66.13-.27.22-.56.27-.85.05-.28.08-.56.08-.85,0-.27-.03-.55-.08-.82h0Z"/>
            <path id="Trazado_928" data-name="Trazado 928" class="cls-1" d="M22.81,36.1c-.13.2-.3.38-.49.53-.2.16-.42.27-.66.35-.25.08-.52.13-.79.12-.34,0-.68-.07-.99-.21-.3-.13-.57-.33-.78-.58-.22-.26-.4-.55-.51-.87-.12-.35-.19-.71-.18-1.08,0-.69.25-1.36.71-1.87.23-.25.5-.45.8-.59.31-.15.66-.23,1.01-.23.24,0,.49.03.72.09.22.05.44.14.64.26.18.1.33.25.45.41.12.17.18.37.17.57,0,.32-.26.58-.58.58-.12,0-.24-.04-.34-.11-.1-.07-.17-.17-.2-.28.11-.36.05-.75-.16-1.06-.17-.19-.43-.3-.69-.27-.22,0-.44.06-.63.18-.2.12-.37.29-.5.48-.15.21-.26.45-.33.7-.08.28-.13.57-.12.86,0,.31.04.62.13.92.08.26.21.5.38.71.16.2.37.35.6.46.25.11.52.16.79.16.38.02.76-.06,1.09-.23.28-.16.51-.4.67-.67l.09.05c-.07.22-.17.43-.3.63h0Z"/>
            <path id="Trazado_929" data-name="Trazado 929" class="cls-1" d="M23.21,37.07v-.11c.09,0,.18-.02.27-.03.08,0,.16-.03.24-.06.07-.02.13-.06.18-.11.05-.04.07-.1.07-.17v-3.83c0-.05,0-.1-.02-.16-.02-.05-.05-.1-.09-.12-.08-.05-.16-.09-.24-.13-.09-.04-.19-.08-.3-.12v-.07l1.51-.49h.07v4.99c0,.07.04.12.09.16.05.04.11.06.17.07.07.01.14.02.22.03.08,0,.15.01.23.03v.11h-2.4ZM24.81,30.34c-.11.11-.27.18-.43.17-.33,0-.59-.27-.6-.6,0-.16.06-.31.17-.42.24-.23.62-.23.86,0,.23.24.23.61,0,.85h0Z"/>
            <path id="Trazado_930" data-name="Trazado 930" class="cls-1" d="M30.94,36.38c-.06.13-.14.26-.24.36-.09.1-.21.19-.34.25-.14.06-.28.09-.43.08-.24,0-.48-.08-.67-.23-.22-.2-.33-.49-.3-.78h-.02c-.07.1-.15.21-.24.32-.11.12-.22.24-.35.33-.14.11-.29.19-.46.25-.18.07-.36.1-.55.1-.12,0-.25-.02-.36-.05-.12-.03-.24-.1-.33-.18-.1-.09-.19-.2-.25-.33-.07-.15-.1-.32-.09-.49,0-.23.09-.44.25-.6.18-.2.39-.38.62-.52.25-.16.46-.29.65-.4.19-.11.35-.21.5-.29.14-.08.27-.14.37-.2s.2-.11.27-.15v-1.15s-.02-.07-.04-.11c-.03-.07-.08-.12-.13-.17-.08-.07-.17-.12-.26-.16-.14-.05-.29-.08-.44-.07-.12,0-.24.02-.35.06-.11.04-.21.09-.31.16-.08.05-.15.12-.21.19-.04.04-.07.1-.08.16v.5c0,.11-.07.22-.16.28-.1.08-.23.12-.35.12-.12,0-.23-.05-.31-.13-.08-.08-.13-.18-.13-.3,0-.09.02-.17.07-.25.04-.08.1-.14.17-.2.07-.06.14-.11.22-.16.08-.04.15-.09.21-.12.19-.11.39-.22.59-.32s.39-.19.58-.27c.16-.07.33-.13.5-.18.12-.04.25-.06.37-.07.19,0,.38.05.55.15.16.08.29.21.37.37.04.09.06.18.06.27,0,.13,0,.26,0,.38,0,.27,0,.51,0,.73,0,.22,0,.42,0,.62s0,.41,0,.62,0,.45,0,.7c-.03.24.03.47.17.66.11.1.25.16.4.16.13.01.27-.03.38-.11.08-.07.14-.17.17-.27h.06c0,.14-.04.28-.1.41h0ZM28.96,34.03c-.16.11-.33.22-.5.31-.2.11-.39.23-.59.35-.18.12-.35.26-.49.42-.13.14-.21.33-.21.52,0,.19.07.38.2.52.13.15.32.24.53.24.17,0,.35-.02.51-.07.16-.05.3-.14.41-.26.09-.08.14-.19.13-.31v-1.72h0Z"/>
            <path id="Trazado_931" data-name="Trazado 931" class="cls-1" d="M35.14,37.1h-.06v-1.12h-.01c-.18.33-.45.62-.77.83-.33.19-.71.28-1.1.27-.27,0-.55-.06-.8-.16-.26-.11-.5-.28-.68-.5-.21-.25-.38-.53-.48-.84-.12-.37-.18-.75-.18-1.14,0-.37.07-.74.21-1.08.13-.33.33-.63.58-.88.26-.25.56-.45.9-.59.37-.15.76-.22,1.16-.21.21,0,.42.02.63.06.18.03.36.08.54.13,0-.11-.01-.27-.02-.46s0-.39,0-.59v-.95l-.92-.34v-.07l1.78-.49h.09v7.25c.11.06.22.11.33.16.16.07.32.13.46.19v.08l-1.65.47h0ZM35.07,32.9c-.15-.29-.36-.54-.63-.74-.2-.17-.44-.26-.7-.28-.26,0-.52.06-.74.2-.21.14-.38.32-.51.54-.14.24-.24.5-.3.77-.06.29-.1.59-.1.89,0,.3.04.6.11.89.07.27.18.53.33.76.14.21.33.4.55.53.23.14.5.21.77.2.29,0,.58-.11.79-.31.22-.21.37-.49.42-.79v-2.66h0Z"/>
            <path id="Trazado_932" data-name="Trazado 932" class="cls-1" d="M42.23,35.41c-.14.33-.33.63-.57.89-.24.25-.52.45-.83.59-.31.14-.65.22-1,.22-.31,0-.61-.06-.91-.16-.67-.22-1.22-.72-1.51-1.37-.17-.39-.26-.82-.25-1.25,0-.69.27-1.35.74-1.84.51-.53,1.21-.83,1.95-.82.31,0,.61.06.9.17.64.23,1.16.71,1.45,1.32.17.37.25.77.24,1.17,0,.37-.07.74-.21,1.08h0ZM41.32,33.5c-.05-.28-.14-.55-.27-.8-.12-.24-.29-.45-.5-.61-.22-.16-.49-.25-.77-.24-.24,0-.47.08-.66.23-.2.16-.37.36-.5.58-.14.26-.25.53-.31.82-.07.3-.11.61-.11.92,0,.33.03.65.09.97.05.28.15.56.29.81.12.22.3.42.52.56.22.14.48.21.75.2.27,0,.53-.09.73-.26.2-.18.37-.41.48-.66.13-.27.22-.56.27-.85.05-.28.08-.56.08-.85,0-.27-.03-.55-.08-.82h0Z"/>
            <path id="Trazado_933" data-name="Trazado 933" class="cls-1" d="M46.6,36.19c-.11.21-.27.38-.46.52-.2.14-.43.24-.67.29-.26.06-.52.09-.79.09-.31,0-.62-.03-.93-.09-.28-.06-.55-.14-.8-.26v-1.47h.09c.06.19.14.38.22.56.09.19.19.38.32.55.12.17.28.31.46.41.19.11.41.17.63.16.31.02.62-.09.85-.31.23-.26.35-.6.32-.94,0-.21-.07-.42-.22-.57-.16-.16-.37-.27-.6-.31-.2-.04-.39-.08-.58-.12-.17-.04-.34-.09-.5-.15-.27-.09-.51-.27-.68-.5-.18-.25-.27-.55-.26-.86,0-.22.05-.43.15-.62.09-.19.23-.35.39-.48.17-.14.36-.24.57-.31.22-.07.46-.11.69-.11.28,0,.55.03.83.09.23.05.46.12.68.21l.13,1.38-.09.02c-.11-.22-.21-.43-.32-.62-.1-.18-.21-.34-.35-.49-.12-.13-.27-.24-.43-.32-.17-.08-.36-.12-.55-.11-.13,0-.25.02-.37.07-.12.04-.23.11-.32.2-.1.09-.18.2-.23.32-.06.14-.09.3-.09.45-.02.22.07.44.23.59.18.13.38.22.59.27.17.04.34.08.54.12s.36.08.5.12c.33.08.63.26.86.51.23.26.36.61.35.96,0,.26-.05.52-.17.75h0Z"/>
          </g>
        </g>
        <g id="Grupo_345" data-name="Grupo 345">
          <g id="Grupo_341" data-name="Grupo 341">
            <path id="Trazado_934" data-name="Trazado 934" class="cls-1" d="M56,11.28v-.07c.23-.02.45-.12.61-.29.09-.11.09-.47.1-.78,0-.27.01-.98.01-1.52v-1.43c0-.34,0-.72-.11-.86-.16-.16-.37-.25-.59-.26v-.07h2.19v.07c-.24,0-.46.12-.6.32-.07.22-.1.45-.08.67,0,.5,0,.92,0,1.52v1.65c-.02.23,0,.47.07.69.17.16.39.26.62.27v.07h-2.22,0Z"/>
            <path id="Trazado_935" data-name="Trazado 935" class="cls-1" d="M62.55,11.28v-.08c.26-.01.43-.04.43-.2v-1.87c0-.56-.18-.93-.68-.93-.32,0-.51.19-.74.45v2.37c0,.15.23.16.4.18v.07h-1.44v-.07c.26-.01.43-.05.43-.21v-1.88c0-.57-.18-.92-.68-.92-.32,0-.48.14-.74.41v2.4c.04.19.21.16.4.19v.07h-1.42v-.07c.23-.02.41-.08.41-.23v-2.52c0-.06-.02-.12-.07-.15-.11-.06-.22-.12-.33-.17v-.04l.96-.34h.04v.79h.01c.2-.35.64-.79,1.17-.79.46,0,.77.34.84.85h.02c.17-.36.65-.85,1.18-.85.57,0,.86.46.86,1.1v2.18c0,.15.28.17.45.19v.07h-1.5,0Z"/>
            <path id="Trazado_936" data-name="Trazado 936" class="cls-1" d="M65.6,11.24c-.17,0-.35-.01-.52-.04v1.51c.04.18.41.16.61.19v.08h-1.82v-.08c.23-.02.6-.09.6-.25v-4.07c0-.06-.02-.12-.07-.15-.09-.05-.33-.16-.45-.21v-.04l1.08-.42h.04v.82h0c.27-.35.67-.82,1.23-.82.92,0,1.34.82,1.34,1.6,0,1.1-.78,1.9-2.05,1.9ZM65.89,8.22c-.36,0-.69.22-.81.55,0,.19,0,.44,0,.6,0,.4,0,.58,0,.81.04.42.16.92.81.92.56,0,1.1-.65,1.1-1.55,0-.73-.35-1.33-1.1-1.33h0Z"/>
            <path id="Trazado_937" data-name="Trazado 937" class="cls-1" d="M70.35,11.3h-.05v-.75h0c-.21.33-.63.77-1.17.77-.62,0-.92-.4-.92-1.11v-1.79c0-.12,0-.24-.04-.36-.07-.17-.31-.15-.48-.17v-.08h1.14v2.13c0,.64.16.94.7.94.32,0,.62-.18.78-.45v-2.09c0-.12-.02-.25-.07-.36-.18-.05-.36-.09-.55-.09v-.08h1.23v2.89c0,.06.02.12.07.15.09.05.29.14.41.19v.04l-1.04.21h0Z"/>
            <path id="Trazado_938" data-name="Trazado 938" class="cls-1" d="M73.06,11.3c-1,0-1.65-.84-1.65-1.86,0-.83.61-1.7,1.55-1.7.77,0,1.36.39,1.42,1.21h-2.35c0,.07-.01.18-.01.29,0,.83.46,1.55,1.36,1.55.44.02.84-.24,1-.64h.06c-.15.66-.71,1.13-1.38,1.15h0ZM72.97,7.87c-.55,0-.89.74-.92.98.44,0,.68,0,1.14-.01.13,0,.25,0,.37-.04.07-.07.11-.16.1-.26,0-.36-.29-.66-.65-.66-.01,0-.03,0-.04,0h0Z"/>
            <path id="Trazado_939" data-name="Trazado 939" class="cls-1" d="M75.84,11.31c-.39,0-.78-.08-1.14-.24v-.97h.06c.16.47.43,1.11,1.08,1.11.47,0,.77-.26.77-.82,0-.3-.24-.55-.54-.58-.24-.04-.48-.1-.71-.18-.38-.13-.63-.49-.62-.89,0-.6.54-1,1.18-1,.34,0,.68.06.99.19l.09.91h-.06c-.27-.58-.53-1-1.08-1-.36,0-.66.28-.67.64,0,.01,0,.03,0,.04,0,.36.24.49.54.56l.68.15c.46.1.79.5.79.97,0,.76-.65,1.1-1.37,1.1h0Z"/>
            <path id="Trazado_940" data-name="Trazado 940" class="cls-1" d="M79.55,8.26h-1.11v1.93c0,.5.23.71.58.71.24.02.46-.09.59-.29l.04.02c-.16.43-.58.7-1.03.67-.4,0-.8-.32-.8-.64,0-.92.01-1.77.01-2.41h-.54v-.08l1.06-1h.06v.64h1.35l-.23.45h0Z"/>
            <path id="Trazado_941" data-name="Trazado 941" class="cls-1" d="M81.52,11.32c-.99-.02-1.77-.83-1.76-1.81.01-.97.8-1.75,1.77-1.76.93,0,1.69.75,1.7,1.68,0,.02,0,.04,0,.06.02.97-.74,1.78-1.71,1.83ZM81.48,7.86c-.64,0-1.03.86-1.03,1.67,0,.89.31,1.67,1.08,1.67s1.02-1.03,1.02-1.72-.26-1.62-1.07-1.62h0Z"/>
            <path id="Trazado_942" data-name="Trazado 942" class="cls-1" d="M84.6,11.31c-.39,0-.78-.08-1.14-.24v-.97h.06c.16.47.43,1.11,1.08,1.11.47,0,.77-.26.77-.82,0-.3-.24-.55-.54-.58-.24-.04-.48-.1-.71-.18-.38-.13-.63-.49-.62-.89,0-.6.54-1,1.18-1,.34,0,.68.06.99.19l.09.91h-.06c-.27-.58-.53-1-1.08-1-.36,0-.66.28-.67.64,0,.01,0,.03,0,.04,0,.36.24.49.54.56l.68.15c.46.1.79.5.79.97,0,.76-.65,1.1-1.37,1.1h0Z"/>
          </g>
          <g id="Grupo_342" data-name="Grupo 342">
            <path id="Trazado_943" data-name="Trazado 943" class="cls-1" d="M59.17,18.15v-.07c.07,0,.51-.06.51-.34-.13-.55-.3-1.09-.53-1.61h-1.95c-.15.37-.29.7-.42,1.04-.08.18-.13.36-.15.55,0,.26.35.32.61.35v.07h-1.57v-.08c.18-.02.36-.1.5-.21.19-.25.34-.52.45-.81.42-.92,1.05-2.41,1.51-3.51l-.07-.16c.27-.13.5-.34.64-.61h.06l1.54,4.12c.11.3.19.47.31.72.14.27.4.44.7.45v.09h-2.14ZM58.21,13.71c-.11.26-.48,1.11-.94,2.26h1.82c-.33-.87-.71-1.82-.89-2.26h0Z"/>
            <path id="Trazado_944" data-name="Trazado 944" class="cls-1" d="M62.5,18.18c-.39,0-.78-.08-1.14-.24v-.97h.06c.16.47.43,1.11,1.08,1.11.47,0,.77-.26.77-.82,0-.3-.24-.55-.54-.58-.24-.04-.48-.1-.71-.18-.38-.13-.63-.49-.62-.89,0-.6.54-1,1.18-1,.34,0,.68.06.99.19l.09.91h-.06c-.27-.58-.53-1-1.08-1-.36,0-.66.28-.67.64,0,.01,0,.03,0,.04,0,.36.24.49.54.56l.68.15c.46.1.79.5.79.97,0,.76-.65,1.1-1.37,1.1h0Z"/>
            <path id="Trazado_945" data-name="Trazado 945" class="cls-1" d="M65.75,18.17c-1,0-1.65-.84-1.65-1.86,0-.83.61-1.7,1.55-1.7.77,0,1.36.39,1.42,1.21h-2.35c0,.07-.01.18-.01.29,0,.83.46,1.55,1.36,1.55.44.02.84-.24,1-.64h.06c-.15.66-.71,1.13-1.38,1.15ZM65.66,14.74c-.55,0-.89.74-.92.98.44,0,.68,0,1.14-.01.13,0,.25,0,.37-.04.07-.07.11-.16.1-.26,0-.36-.29-.66-.65-.66-.01,0-.03,0-.04,0h0Z"/>
            <path id="Trazado_946" data-name="Trazado 946" class="cls-1" d="M68.51,18.18c-.39,0-.78-.08-1.14-.24v-.97h.06c.16.47.43,1.11,1.08,1.11.47,0,.77-.26.77-.82,0-.3-.24-.55-.54-.58-.24-.04-.48-.1-.71-.18-.38-.13-.63-.49-.62-.89,0-.6.54-1,1.18-1,.34,0,.68.06.99.19l.09.91h-.06c-.27-.58-.53-1-1.08-1-.36,0-.66.28-.67.64,0,.01,0,.03,0,.04,0,.36.24.49.54.56l.68.15c.46.1.79.5.79.97,0,.76-.65,1.1-1.37,1.1h0Z"/>
            <path id="Trazado_947" data-name="Trazado 947" class="cls-1" d="M71.95,18.19c-.99-.02-1.77-.83-1.76-1.81.01-.97.8-1.75,1.77-1.76.93,0,1.69.75,1.7,1.68,0,.02,0,.04,0,.06.02.97-.74,1.78-1.71,1.83ZM71.91,14.73c-.64,0-1.03.86-1.03,1.67,0,.89.31,1.67,1.08,1.67s1.02-1.03,1.02-1.72-.26-1.62-1.07-1.62h0Z"/>
            <path id="Trazado_948" data-name="Trazado 948" class="cls-1" d="M75.88,15.37c-.32,0-.31-.26-.58-.26-.24,0-.45.37-.56.67v2.11c.07.18.42.16.62.19v.07h-1.64v-.07c.23-.02.41-.08.41-.23v-2.48c0-.06-.02-.12-.07-.15-.11-.07-.22-.13-.33-.18v-.05l.96-.37h.04v1.02s0,0,0,0c.1-.23.41-1.02,1.02-1.02.23-.02.42.15.44.38,0,0,0,0,0,.01.01.19-.13.35-.32.37h0Z"/>
            <path id="Trazado_949" data-name="Trazado 949" class="cls-1" d="M76.41,18.15v-.07c.23-.02.5-.05.5-.23v-2.54c0-.07,0-.11-.07-.15-.09-.04-.23-.11-.35-.16v-.05l.99-.32h.04v3.27c.04.19.27.16.47.19v.07s-1.58,0-1.58,0ZM76.89,14.38l-.07-.04.76-1.29c.14-.01.27.06.34.18v.04l-1.02,1.12h0Z"/>
            <path id="Trazado_950" data-name="Trazado 950" class="cls-1" d="M80.49,18.17c-.33.02-.62-.23-.64-.56,0-.04,0-.08,0-.11h-.01c-.22.38-.61.63-1.05.66-.36.02-.67-.26-.68-.63,0-.02,0-.05,0-.07,0-.27.25-.54.57-.74.64-.41.97-.55,1.18-.68v-.75s-.11-.34-.57-.34c-.32,0-.62.26-.62.37v.33c0,.13-.18.26-.34.26-.15,0-.28-.12-.29-.28,0-.24.27-.38.43-.48.51-.3,1.09-.55,1.34-.55.25,0,.47.13.6.34.04.14.05.29.04.43,0,.7-.01,1.08-.01,1.75,0,.44.18.54.37.54.17.03.32-.08.36-.25h.04c-.01.4-.33.72-.72.74ZM79.86,16.16c-.35.26-1.17.55-1.17,1.05,0,.27.2.49.47.5,0,0,0,0,0,0,.22.02.44-.06.61-.21.06-.05.09-.13.09-.21v-1.13Z"/>
            <path id="Trazado_951" data-name="Trazado 951" class="cls-1" d="M82.57,18.18c-.39,0-.78-.08-1.14-.24v-.97h.06c.16.47.43,1.11,1.08,1.11.47,0,.77-.26.77-.82,0-.3-.24-.55-.54-.58-.24-.04-.48-.1-.71-.18-.38-.13-.63-.49-.62-.89,0-.6.54-1,1.18-1,.34,0,.68.06.99.19l.09.91h-.06c-.27-.58-.53-1-1.08-1-.36,0-.66.28-.67.64,0,.01,0,.03,0,.04,0,.36.24.49.54.56l.68.15c.46.1.79.5.79.97,0,.76-.65,1.1-1.37,1.1h0Z"/>
          </g>
          <g id="Grupo_343" data-name="Grupo 343">
            <path id="Trazado_952" data-name="Trazado 952" class="cls-1" d="M57.84,25.08c-.49.02-.97-.1-1.4-.33-.03,0-.15.15-.23.26h-.07l-.02-1.46h.07c.16.49.48.92.91,1.22.22.12.47.18.72.2.72,0,1.22-.43,1.22-1.1,0-.55-.37-.79-.84-.97-.48-.18-.64-.21-1.08-.38-.56-.21-.94-.73-.97-1.32,0-1.05.83-1.53,1.76-1.53.45-.03.89.1,1.26.35.09-.07.16-.16.22-.26h.08v1.35h-.08c-.24-.65-.72-1.32-1.49-1.32-.61,0-1.1.37-1.1,1.03,0,.51.35.81.84,1,.4.15.67.23,1.05.37.66.24,1.05.71,1.05,1.4,0,.94-.8,1.51-1.91,1.51h0Z"/>
            <path id="Trazado_953" data-name="Trazado 953" class="cls-1" d="M61.69,25.04c-1,0-1.65-.84-1.65-1.86,0-.83.61-1.7,1.55-1.7.77,0,1.36.39,1.42,1.21h-2.35c0,.07-.01.18-.01.29,0,.83.46,1.55,1.36,1.55.44.02.84-.24,1-.64h.06c-.15.66-.71,1.13-1.38,1.15h0ZM61.6,21.61c-.55,0-.89.74-.92.98.44,0,.68,0,1.14-.01.13,0,.25,0,.37-.04.07-.07.11-.16.1-.26,0-.36-.29-.66-.65-.66-.01,0-.03,0-.04,0h0Z"/>
            <path id="Trazado_954" data-name="Trazado 954" class="cls-1" d="M65.27,22.24c-.32,0-.31-.26-.58-.26-.24,0-.45.37-.56.67v2.11c.07.18.42.16.62.19v.07h-1.64v-.07c.23-.02.41-.08.41-.23v-2.48c0-.06-.02-.12-.07-.15-.11-.07-.22-.13-.33-.18v-.05l.96-.37h.04v1.02s0,0,0,0c.1-.23.41-1.02,1.02-1.02.23-.02.42.15.44.38,0,0,0,0,0,.01.01.19-.13.36-.32.37h0Z"/>
            <path id="Trazado_955" data-name="Trazado 955" class="cls-1" d="M68.85,22.04c-.23.54-.64,1.56-.91,2.25-.15.34-.21.47-.32.72-.01.04-.04.06-.07.06s-.06-.04-.07-.07l-.94-2.45c-.07-.16-.22-.57-.32-.75-.06-.06-.14-.15-.48-.17v-.08h1.78v.08c-.18.02-.56.03-.56.23,0,.15.62,1.66.89,2.37.29-.72.85-2.18.85-2.34,0-.28-.34-.25-.51-.26v-.07h1.42v.08c-.31-.03-.6.13-.75.4h0Z"/>
            <path id="Trazado_956" data-name="Trazado 956" class="cls-1" d="M69.63,25.02v-.07c.23-.02.5-.05.5-.23v-2.51c.01-.07-.02-.14-.07-.18-.11-.07-.23-.13-.35-.17v-.04l.99-.32h.04v3.27c.04.19.27.16.47.19v.07s-1.58,0-1.58,0ZM70.4,20.72c-.22,0-.39-.18-.4-.4,0-.22.18-.39.4-.39,0,0,0,0,0,0,.21,0,.39.17.4.38,0,0,0,0,0,0,0,.22-.17.4-.39.4,0,0,0,0,0,0Z"/>
            <path id="Trazado_957" data-name="Trazado 957" class="cls-1" d="M72.76,25.06c-.94,0-1.62-.81-1.62-1.81-.03-.94.71-1.73,1.65-1.77.64,0,1.3.32,1.3.87,0,.21-.17.38-.38.38-.16,0-.31-.1-.35-.26.03-.08.04-.16.04-.25.04-.31-.18-.59-.48-.63-.04,0-.07,0-.11,0-.6,0-1.05.66-1.05,1.46,0,.89.48,1.48,1.25,1.48.6,0,.92-.21,1.16-.59l.06.03c-.2.64-.79,1.09-1.47,1.08h0Z"/>
            <path id="Trazado_958" data-name="Trazado 958" class="cls-1" d="M74.35,25.02v-.07c.23-.02.5-.05.5-.23v-2.51c.01-.07-.02-.14-.07-.18-.11-.07-.23-.13-.35-.17v-.04l.99-.32h.04v3.27c.04.19.27.16.47.19v.07s-1.58,0-1.58,0ZM75.12,20.72c-.22,0-.39-.18-.4-.4,0-.22.18-.39.4-.39.21,0,.39.17.4.38,0,0,0,0,0,0,0,.22-.17.4-.39.4,0,0,0,0,0,0h0Z"/>
            <path id="Trazado_959" data-name="Trazado 959" class="cls-1" d="M77.61,25.06c-.99-.02-1.77-.83-1.76-1.81.01-.97.8-1.75,1.77-1.76.93,0,1.69.75,1.7,1.68,0,.02,0,.04,0,.06.02.97-.74,1.78-1.71,1.83ZM77.57,21.6c-.64,0-1.03.86-1.03,1.67,0,.89.31,1.67,1.08,1.67s1.02-1.03,1.02-1.72-.26-1.62-1.07-1.62h0Z"/>
            <path id="Trazado_960" data-name="Trazado 960" class="cls-1" d="M80.66,25.05c-.39,0-.78-.08-1.14-.24v-.97h.06c.16.47.43,1.11,1.08,1.11.47,0,.77-.26.77-.82,0-.3-.24-.55-.54-.58-.24-.04-.48-.1-.71-.18-.38-.13-.63-.49-.62-.89,0-.6.54-1,1.18-1,.34,0,.68.06.99.19l.09.91h-.06c-.27-.58-.53-1-1.08-1-.36,0-.66.28-.67.64,0,.01,0,.03,0,.04,0,.36.24.49.54.56l.68.15c.46.1.79.5.79.97,0,.76-.65,1.1-1.37,1.1h0Z"/>
          </g>
          <g id="Grupo_344" data-name="Grupo 344">
            <path id="Trazado_961" data-name="Trazado 961" class="cls-1" d="M60.9,28.32c-.26-.94-1.03-1.68-2.01-1.68-1.35,0-2.12,1.32-2.12,2.64,0,1.41.84,2.53,2.13,2.53.96-.03,1.78-.7,1.99-1.64h.09l-.02,1.61h-.09c-.12-.17-.27-.33-.32-.33-.52.33-1.12.5-1.73.49-1.82,0-2.96-1.12-2.96-2.7,0-.52.15-1.04.43-1.48.42-.67,1.2-1.25,2.48-1.25.63-.02,1.26.16,1.79.51.14-.09.25-.21.34-.35h.08v1.64h-.09s0,0,0,0Z"/>
            <path id="Trazado_962" data-name="Trazado 962" class="cls-1" d="M63.1,31.93c-.99-.02-1.77-.83-1.76-1.81.01-.97.8-1.75,1.77-1.76.93,0,1.69.75,1.7,1.68,0,.02,0,.04,0,.06.02.97-.74,1.78-1.71,1.83ZM63.06,28.47c-.64,0-1.03.86-1.03,1.67,0,.89.31,1.67,1.08,1.67s1.02-1.03,1.02-1.72-.26-1.62-1.07-1.62h0Z"/>
            <path id="Trazado_963" data-name="Trazado 963" class="cls-1" d="M67.06,29.11c-.32,0-.31-.26-.58-.26-.24,0-.45.37-.56.67v2.11c.07.18.42.16.62.19v.07h-1.64v-.07c.23-.02.41-.08.41-.23v-2.48c0-.06-.02-.12-.07-.15-.11-.07-.22-.13-.33-.18v-.05l.96-.37h.04v1.02s0,0,0,0c.1-.23.41-1.02,1.02-1.02.23-.02.42.15.44.38,0,0,0,0,0,.01.01.19-.13.35-.32.37h0Z"/>
            <path id="Trazado_964" data-name="Trazado 964" class="cls-1" d="M69.23,31.85c-.17,0-.35-.01-.52-.04v1.51c.04.18.41.16.61.19v.08h-1.82v-.08c.23-.02.6-.09.6-.25v-4.07c0-.06-.02-.12-.07-.15-.09-.05-.33-.16-.45-.21v-.04l1.08-.42h.04v.82h0c.27-.35.67-.82,1.23-.82.92,0,1.34.82,1.34,1.6,0,1.1-.78,1.9-2.05,1.9h0ZM69.53,28.83c-.36,0-.69.22-.81.55,0,.19,0,.44,0,.6,0,.4,0,.58,0,.81.04.42.16.92.81.92.56,0,1.1-.65,1.1-1.55,0-.73-.35-1.33-1.1-1.33h0Z"/>
            <path id="Trazado_965" data-name="Trazado 965" class="cls-1" d="M73.4,31.93c-.99-.02-1.77-.83-1.76-1.81.01-.97.8-1.75,1.77-1.76.93,0,1.69.75,1.7,1.68,0,.02,0,.04,0,.06.02.97-.74,1.78-1.71,1.83ZM73.37,28.47c-.64,0-1.03.86-1.03,1.67,0,.89.31,1.67,1.08,1.67s1.02-1.03,1.02-1.72-.26-1.62-1.07-1.62h0Z"/>
            <path id="Trazado_966" data-name="Trazado 966" class="cls-1" d="M77.36,29.11c-.32,0-.31-.26-.58-.26-.24,0-.45.37-.56.67v2.11c.07.18.42.16.62.19v.07h-1.64v-.07c.23-.02.41-.08.41-.23v-2.48c0-.06-.02-.12-.07-.15-.11-.07-.22-.13-.33-.18v-.05l.96-.37h.04v1.02s0,0,0,0c.1-.23.41-1.02,1.02-1.02.23-.02.42.15.44.38,0,0,0,0,0,.01.01.19-.13.35-.32.37h0Z"/>
            <path id="Trazado_967" data-name="Trazado 967" class="cls-1" d="M80.34,31.91c-.33.02-.62-.23-.64-.56,0-.04,0-.08,0-.11h-.01c-.22.38-.61.63-1.05.66-.36.02-.67-.26-.68-.63,0-.02,0-.05,0-.07,0-.27.25-.54.57-.74.64-.41.97-.55,1.18-.68v-.75s-.11-.34-.57-.34c-.32,0-.62.26-.62.37v.33c0,.13-.18.26-.34.26-.15,0-.28-.12-.29-.28,0-.24.27-.38.43-.48.51-.3,1.09-.55,1.34-.55.25,0,.47.13.6.34.04.14.05.29.04.43,0,.7-.01,1.08-.01,1.75,0,.44.18.54.37.54.17.03.32-.08.36-.25h.04c-.01.4-.33.72-.72.74ZM79.7,29.9c-.35.26-1.17.55-1.17,1.05,0,.27.2.49.47.5,0,0,0,0,0,0,.22.02.44-.06.61-.21.06-.05.09-.13.09-.21v-1.13h0Z"/>
            <path id="Trazado_968" data-name="Trazado 968" class="cls-1" d="M83.26,28.87h-1.11v1.93c0,.5.23.71.58.71.24.02.46-.09.59-.29l.04.02c-.16.43-.58.7-1.03.67-.4,0-.8-.32-.8-.64,0-.92.01-1.77.01-2.41h-.54v-.08l1.06-1h.06v.64h1.35l-.23.45h0Z"/>
            <path id="Trazado_969" data-name="Trazado 969" class="cls-1" d="M83.61,31.89v-.07c.23-.02.5-.05.5-.23v-2.51c.01-.07-.02-.14-.07-.18-.11-.07-.23-.13-.35-.17v-.04l.99-.32h.04v3.27c.04.19.27.16.47.19v.07h-1.58ZM84.37,27.59c-.22,0-.39-.18-.4-.4,0-.22.18-.39.4-.39.21,0,.39.17.4.38,0,0,0,0,0,0,0,.22-.17.4-.39.4,0,0,0,0,0,0h0Z"/>
            <path id="Trazado_970" data-name="Trazado 970" class="cls-1" d="M88.2,28.91c-.23.54-.64,1.56-.91,2.25-.15.34-.21.47-.32.72-.01.04-.04.06-.07.06s-.06-.04-.07-.07l-.94-2.45c-.07-.16-.22-.57-.32-.75-.06-.06-.14-.15-.48-.17v-.08h1.78v.08c-.18.02-.56.03-.56.23,0,.15.61,1.66.89,2.37.29-.72.85-2.18.85-2.34,0-.28-.34-.25-.51-.26v-.07h1.42v.08c-.31-.03-.6.13-.75.4h0Z"/>
            <path id="Trazado_971" data-name="Trazado 971" class="cls-1" d="M90.46,31.93c-.99-.02-1.77-.83-1.76-1.81.01-.97.8-1.75,1.77-1.76.93,0,1.69.75,1.7,1.68,0,.02,0,.04,0,.06.02.97-.74,1.78-1.71,1.83ZM90.42,28.47c-.64,0-1.03.86-1.03,1.67,0,.89.31,1.67,1.08,1.67s1.02-1.03,1.02-1.72-.26-1.62-1.07-1.62h0Z"/>
            <path id="Trazado_972" data-name="Trazado 972" class="cls-1" d="M93.51,31.92c-.39,0-.78-.08-1.14-.24v-.97h.06c.16.47.43,1.11,1.08,1.11.47,0,.77-.26.77-.82,0-.3-.24-.55-.54-.58-.24-.04-.48-.1-.71-.18-.38-.13-.63-.49-.62-.89,0-.6.54-1,1.18-1,.34,0,.68.06.99.19l.09.91h-.06c-.27-.58-.53-1-1.08-1-.36,0-.66.28-.67.64,0,.01,0,.03,0,.04,0,.36.24.49.54.56l.68.15c.46.1.79.5.79.97,0,.76-.65,1.1-1.37,1.1h0Z"/>
          </g>
        </g>
      </g>
    </g>
  </g>
</svg>